<?xml version="1.0" encoding="UTF-8" standalone="no"?>
<!DOCTYPE svg PUBLIC "-//W3C//DTD SVG 1.1//EN"
 "http://www.w3.org/Graphics/SVG/1.1/DTD/svg11.dtd">
<!-- Generated by graphviz version 2.26.3 (20100126.1600)
 -->
<!-- Title: controllers_diagram Pages: 1 -->
<svg width="1180pt" height="1159pt"
 viewBox="0.00 0.00 1180.00 1159.00" xmlns="http://www.w3.org/2000/svg" xmlns:xlink="http://www.w3.org/1999/xlink">
<g id="graph1" class="graph" transform="scale(1 1) rotate(0) translate(4 1155)">
<title>controllers_diagram</title>
<polygon fill="white" stroke="white" points="-4,5 -4,-1155 1177,-1155 1177,5 -4,5"/>
<!-- _diagram_info -->
<g id="node1" class="node"><title>_diagram_info</title>
<text text-anchor="start" x="929" y="-791.3" font-family="Times Roman,serif" font-size="13.00">Controllers diagram</text>
<text text-anchor="start" x="929" y="-774.3" font-family="Times Roman,serif" font-size="13.00">Date: Mar 21 2012 &#45; 10:22</text>
<text text-anchor="start" x="929" y="-757.3" font-family="Times Roman,serif" font-size="13.00">Migration version: 20120319121640</text>
<text text-anchor="start" x="929" y="-740.3" font-family="Times Roman,serif" font-size="13.00">Generated by RailRoady 1.0.7</text>
<text text-anchor="start" x="929" y="-723.3" font-family="Times Roman,serif" font-size="13.00">http://railroady.prestonlee.com</text>
</g>
<!-- FiltersController -->
<g id="node2" class="node"><title>FiltersController</title>
<polyline fill="none" stroke="black" points="772,-990.5 876,-990.5 "/>
<path fill="none" stroke="black" d="M876,-990.5C882,-990.5 888,-996.5 888,-1002.5"/>
<polyline fill="none" stroke="black" points="888,-1002.5 888,-1098.5 "/>
<path fill="none" stroke="black" d="M888,-1098.5C888,-1104.5 882,-1110.5 876,-1110.5"/>
<polyline fill="none" stroke="black" points="876,-1110.5 772,-1110.5 "/>
<path fill="none" stroke="black" d="M772,-1110.5C766,-1110.5 760,-1104.5 760,-1098.5"/>
<polyline fill="none" stroke="black" points="760,-1098.5 760,-1002.5 "/>
<path fill="none" stroke="black" d="M760,-1002.5C760,-996.5 766,-990.5 772,-990.5"/>
<text text-anchor="middle" x="824" y="-1093.9" font-family="Times Roman,serif" font-size="14.00">FiltersController</text>
<polyline fill="none" stroke="black" points="760,-1084.5 888,-1084.5 "/>
<text text-anchor="start" x="768" y="-1067.9" font-family="Times Roman,serif" font-size="14.00">create</text>
<text text-anchor="start" x="768" y="-1049.9" font-family="Times Roman,serif" font-size="14.00">destroy</text>
<polyline fill="none" stroke="black" points="760,-1040.5 888,-1040.5 "/>
<polyline fill="none" stroke="black" points="760,-1016.5 888,-1016.5 "/>
<text text-anchor="start" x="768" y="-999.9" font-family="Times Roman,serif" font-size="14.00">_layout</text>
</g>
<!-- SettingsController -->
<g id="node3" class="node"><title>SettingsController</title>
<polyline fill="none" stroke="black" points="933,-852.5 1052,-852.5 "/>
<path fill="none" stroke="black" d="M1052,-852.5C1058,-852.5 1064,-858.5 1064,-864.5"/>
<polyline fill="none" stroke="black" points="1064,-864.5 1064,-1014.5 "/>
<path fill="none" stroke="black" d="M1064,-1014.5C1064,-1020.5 1058,-1026.5 1052,-1026.5"/>
<polyline fill="none" stroke="black" points="1052,-1026.5 933,-1026.5 "/>
<path fill="none" stroke="black" d="M933,-1026.5C927,-1026.5 921,-1020.5 921,-1014.5"/>
<polyline fill="none" stroke="black" points="921,-1014.5 921,-864.5 "/>
<path fill="none" stroke="black" d="M921,-864.5C921,-858.5 927,-852.5 933,-852.5"/>
<text text-anchor="middle" x="992.5" y="-1009.9" font-family="Times Roman,serif" font-size="14.00">SettingsController</text>
<polyline fill="none" stroke="black" points="921,-1000.5 1064,-1000.5 "/>
<text text-anchor="start" x="929" y="-983.9" font-family="Times Roman,serif" font-size="14.00">email</text>
<text text-anchor="start" x="929" y="-965.9" font-family="Times Roman,serif" font-size="14.00">password</text>
<text text-anchor="start" x="929" y="-947.9" font-family="Times Roman,serif" font-size="14.00">terminate</text>
<text text-anchor="start" x="929" y="-929.9" font-family="Times Roman,serif" font-size="14.00">update_email</text>
<text text-anchor="start" x="929" y="-911.9" font-family="Times Roman,serif" font-size="14.00">update_password</text>
<polyline fill="none" stroke="black" points="921,-902.5 1064,-902.5 "/>
<polyline fill="none" stroke="black" points="921,-878.5 1064,-878.5 "/>
<text text-anchor="start" x="929" y="-861.9" font-family="Times Roman,serif" font-size="14.00">_layout</text>
</g>
<!-- SelectionsController -->
<g id="node4" class="node"><title>SelectionsController</title>
<polyline fill="none" stroke="black" points="82,-139.5 305,-139.5 "/>
<path fill="none" stroke="black" d="M305,-139.5C311,-139.5 317,-145.5 317,-151.5"/>
<polyline fill="none" stroke="black" points="317,-151.5 317,-283.5 "/>
<path fill="none" stroke="black" d="M317,-283.5C317,-289.5 311,-295.5 305,-295.5"/>
<polyline fill="none" stroke="black" points="305,-295.5 82,-295.5 "/>
<path fill="none" stroke="black" d="M82,-295.5C76,-295.5 70,-289.5 70,-283.5"/>
<polyline fill="none" stroke="black" points="70,-283.5 70,-151.5 "/>
<path fill="none" stroke="black" d="M70,-151.5C70,-145.5 76,-139.5 82,-139.5"/>
<text text-anchor="middle" x="193.5" y="-278.9" font-family="Times Roman,serif" font-size="14.00">SelectionsController</text>
<polyline fill="none" stroke="black" points="70,-269.5 317,-269.5 "/>
<text text-anchor="start" x="78" y="-252.9" font-family="Times Roman,serif" font-size="14.00">_one_time_conditions_valid_202?</text>
<text text-anchor="start" x="78" y="-234.9" font-family="Times Roman,serif" font-size="14.00">create</text>
<text text-anchor="start" x="78" y="-216.9" font-family="Times Roman,serif" font-size="14.00">destroy</text>
<text text-anchor="start" x="78" y="-198.9" font-family="Times Roman,serif" font-size="14.00">multiple_add</text>
<polyline fill="none" stroke="black" points="70,-189.5 317,-189.5 "/>
<polyline fill="none" stroke="black" points="70,-165.5 317,-165.5 "/>
<text text-anchor="start" x="78" y="-148.9" font-family="Times Roman,serif" font-size="14.00">_layout</text>
</g>
<!-- SubscriptionsController -->
<g id="node5" class="node"><title>SubscriptionsController</title>
<polyline fill="none" stroke="black" points="634,-691.5 857,-691.5 "/>
<path fill="none" stroke="black" d="M857,-691.5C863,-691.5 869,-697.5 869,-703.5"/>
<polyline fill="none" stroke="black" points="869,-703.5 869,-925.5 "/>
<path fill="none" stroke="black" d="M869,-925.5C869,-931.5 863,-937.5 857,-937.5"/>
<polyline fill="none" stroke="black" points="857,-937.5 634,-937.5 "/>
<path fill="none" stroke="black" d="M634,-937.5C628,-937.5 622,-931.5 622,-925.5"/>
<polyline fill="none" stroke="black" points="622,-925.5 622,-703.5 "/>
<path fill="none" stroke="black" d="M622,-703.5C622,-697.5 628,-691.5 634,-691.5"/>
<text text-anchor="middle" x="745.5" y="-920.9" font-family="Times Roman,serif" font-size="14.00">SubscriptionsController</text>
<polyline fill="none" stroke="black" points="622,-911.5 869,-911.5 "/>
<text text-anchor="start" x="630" y="-894.9" font-family="Times Roman,serif" font-size="14.00">_callback_before_243</text>
<text text-anchor="start" x="630" y="-876.9" font-family="Times Roman,serif" font-size="14.00">_one_time_conditions_valid_244?</text>
<text text-anchor="start" x="630" y="-858.9" font-family="Times Roman,serif" font-size="14.00">create</text>
<text text-anchor="start" x="630" y="-840.9" font-family="Times Roman,serif" font-size="14.00">destroy</text>
<text text-anchor="start" x="630" y="-822.9" font-family="Times Roman,serif" font-size="14.00">edit</text>
<text text-anchor="start" x="630" y="-804.9" font-family="Times Roman,serif" font-size="14.00">index</text>
<text text-anchor="start" x="630" y="-786.9" font-family="Times Roman,serif" font-size="14.00">multiple_update</text>
<text text-anchor="start" x="630" y="-768.9" font-family="Times Roman,serif" font-size="14.00">show</text>
<text text-anchor="start" x="630" y="-750.9" font-family="Times Roman,serif" font-size="14.00">update</text>
<polyline fill="none" stroke="black" points="622,-741.5 869,-741.5 "/>
<polyline fill="none" stroke="black" points="622,-717.5 869,-717.5 "/>
<text text-anchor="start" x="630" y="-700.9" font-family="Times Roman,serif" font-size="14.00">_layout</text>
</g>
<!-- ServicesController -->
<g id="node6" class="node"><title>ServicesController</title>
<polyline fill="none" stroke="black" points="611,-346.5 834,-346.5 "/>
<path fill="none" stroke="black" d="M834,-346.5C840,-346.5 846,-352.5 846,-358.5"/>
<polyline fill="none" stroke="black" points="846,-358.5 846,-634.5 "/>
<path fill="none" stroke="black" d="M846,-634.5C846,-640.5 840,-646.5 834,-646.5"/>
<polyline fill="none" stroke="black" points="834,-646.5 611,-646.5 "/>
<path fill="none" stroke="black" d="M611,-646.5C605,-646.5 599,-640.5 599,-634.5"/>
<polyline fill="none" stroke="black" points="599,-634.5 599,-358.5 "/>
<path fill="none" stroke="black" d="M599,-358.5C599,-352.5 605,-346.5 611,-346.5"/>
<text text-anchor="middle" x="722.5" y="-629.9" font-family="Times Roman,serif" font-size="14.00">ServicesController</text>
<polyline fill="none" stroke="black" points="599,-620.5 846,-620.5 "/>
<text text-anchor="start" x="607" y="-603.9" font-family="Times Roman,serif" font-size="14.00">_callback_before_575</text>
<text text-anchor="start" x="607" y="-585.9" font-family="Times Roman,serif" font-size="14.00">_one_time_conditions_valid_576?</text>
<text text-anchor="start" x="607" y="-567.9" font-family="Times Roman,serif" font-size="14.00">create</text>
<text text-anchor="start" x="607" y="-549.9" font-family="Times Roman,serif" font-size="14.00">create_new_selection</text>
<text text-anchor="start" x="607" y="-531.9" font-family="Times Roman,serif" font-size="14.00">destroy</text>
<text text-anchor="start" x="607" y="-513.9" font-family="Times Roman,serif" font-size="14.00">edit</text>
<text text-anchor="start" x="607" y="-495.9" font-family="Times Roman,serif" font-size="14.00">index</text>
<text text-anchor="start" x="607" y="-477.9" font-family="Times Roman,serif" font-size="14.00">new</text>
<text text-anchor="start" x="607" y="-459.9" font-family="Times Roman,serif" font-size="14.00">selections</text>
<text text-anchor="start" x="607" y="-441.9" font-family="Times Roman,serif" font-size="14.00">show</text>
<text text-anchor="start" x="607" y="-423.9" font-family="Times Roman,serif" font-size="14.00">sort</text>
<text text-anchor="start" x="607" y="-405.9" font-family="Times Roman,serif" font-size="14.00">update</text>
<polyline fill="none" stroke="black" points="599,-396.5 846,-396.5 "/>
<polyline fill="none" stroke="black" points="599,-372.5 846,-372.5 "/>
<text text-anchor="start" x="607" y="-355.9" font-family="Times Roman,serif" font-size="14.00">_layout</text>
</g>
<!-- ApplicationController -->
<g id="node7" class="node"><title>ApplicationController</title>
<polyline fill="none" stroke="black" points="450,-116.5 673,-116.5 "/>
<path fill="none" stroke="black" d="M673,-116.5C679,-116.5 685,-122.5 685,-128.5"/>
<polyline fill="none" stroke="black" points="685,-128.5 685,-280.5 "/>
<path fill="none" stroke="black" d="M685,-280.5C685,-286.5 679,-292.5 673,-292.5"/>
<polyline fill="none" stroke="black" points="673,-292.5 450,-292.5 "/>
<path fill="none" stroke="black" d="M450,-292.5C444,-292.5 438,-286.5 438,-280.5"/>
<polyline fill="none" stroke="black" points="438,-280.5 438,-128.5 "/>
<path fill="none" stroke="black" d="M438,-128.5C438,-122.5 444,-116.5 450,-116.5"/>
<text text-anchor="middle" x="561.5" y="-275.9" font-family="Times Roman,serif" font-size="14.00">ApplicationController</text>
<polyline fill="none" stroke="black" points="438,-266.5 685,-266.5 "/>
<text text-anchor="start" x="446" y="-249.9" font-family="Times Roman,serif" font-size="14.00">_one_time_conditions_valid_150?</text>
<text text-anchor="start" x="446" y="-231.9" font-family="Times Roman,serif" font-size="14.00">_one_time_conditions_valid_154?</text>
<text text-anchor="start" x="446" y="-213.9" font-family="Times Roman,serif" font-size="14.00">after_sign_in_path_for</text>
<text text-anchor="start" x="446" y="-195.9" font-family="Times Roman,serif" font-size="14.00">current_ability</text>
<text text-anchor="start" x="446" y="-177.9" font-family="Times Roman,serif" font-size="14.00">referer_session</text>
<polyline fill="none" stroke="black" points="438,-168.5 685,-168.5 "/>
<text text-anchor="start" x="446" y="-151.9" font-family="Times Roman,serif" font-size="14.00">template</text>
<polyline fill="none" stroke="black" points="438,-142.5 685,-142.5 "/>
<text text-anchor="start" x="446" y="-125.9" font-family="Times Roman,serif" font-size="14.00">_layout</text>
</g>
<!-- CommentsController -->
<g id="node8" class="node"><title>CommentsController</title>
<polyline fill="none" stroke="black" points="13,-530.5 236,-530.5 "/>
<path fill="none" stroke="black" d="M236,-530.5C242,-530.5 248,-536.5 248,-542.5"/>
<polyline fill="none" stroke="black" points="248,-542.5 248,-656.5 "/>
<path fill="none" stroke="black" d="M248,-656.5C248,-662.5 242,-668.5 236,-668.5"/>
<polyline fill="none" stroke="black" points="236,-668.5 13,-668.5 "/>
<path fill="none" stroke="black" d="M13,-668.5C7,-668.5 1,-662.5 1,-656.5"/>
<polyline fill="none" stroke="black" points="1,-656.5 1,-542.5 "/>
<path fill="none" stroke="black" d="M1,-542.5C1,-536.5 7,-530.5 13,-530.5"/>
<text text-anchor="middle" x="124.5" y="-651.9" font-family="Times Roman,serif" font-size="14.00">CommentsController</text>
<polyline fill="none" stroke="black" points="1,-642.5 248,-642.5 "/>
<text text-anchor="start" x="9" y="-625.9" font-family="Times Roman,serif" font-size="14.00">_one_time_conditions_valid_578?</text>
<text text-anchor="start" x="9" y="-607.9" font-family="Times Roman,serif" font-size="14.00">create</text>
<text text-anchor="start" x="9" y="-589.9" font-family="Times Roman,serif" font-size="14.00">destroy</text>
<polyline fill="none" stroke="black" points="1,-580.5 248,-580.5 "/>
<polyline fill="none" stroke="black" points="1,-556.5 248,-556.5 "/>
<text text-anchor="start" x="9" y="-539.9" font-family="Times Roman,serif" font-size="14.00">_layout</text>
</g>
<!-- IdeasController -->
<g id="node9" class="node"><title>IdeasController</title>
<polyline fill="none" stroke="black" points="611,-1013.5 709,-1013.5 "/>
<path fill="none" stroke="black" d="M709,-1013.5C715,-1013.5 721,-1019.5 721,-1025.5"/>
<polyline fill="none" stroke="black" points="721,-1025.5 721,-1121.5 "/>
<path fill="none" stroke="black" d="M721,-1121.5C721,-1127.5 715,-1133.5 709,-1133.5"/>
<polyline fill="none" stroke="black" points="709,-1133.5 611,-1133.5 "/>
<path fill="none" stroke="black" d="M611,-1133.5C605,-1133.5 599,-1127.5 599,-1121.5"/>
<polyline fill="none" stroke="black" points="599,-1121.5 599,-1025.5 "/>
<path fill="none" stroke="black" d="M599,-1025.5C599,-1019.5 605,-1013.5 611,-1013.5"/>
<text text-anchor="middle" x="660" y="-1116.9" font-family="Times Roman,serif" font-size="14.00">IdeasController</text>
<polyline fill="none" stroke="black" points="599,-1107.5 721,-1107.5 "/>
<text text-anchor="start" x="607" y="-1090.9" font-family="Times Roman,serif" font-size="14.00">create</text>
<text text-anchor="start" x="607" y="-1072.9" font-family="Times Roman,serif" font-size="14.00">destroy</text>
<polyline fill="none" stroke="black" points="599,-1063.5 721,-1063.5 "/>
<polyline fill="none" stroke="black" points="599,-1039.5 721,-1039.5 "/>
<text text-anchor="start" x="607" y="-1022.9" font-family="Times Roman,serif" font-size="14.00">_layout</text>
</g>
<!-- NoticesController -->
<g id="node10" class="node"><title>NoticesController</title>
<polyline fill="none" stroke="black" points="13,-369.5 236,-369.5 "/>
<path fill="none" stroke="black" d="M236,-369.5C242,-369.5 248,-375.5 248,-381.5"/>
<polyline fill="none" stroke="black" points="248,-381.5 248,-477.5 "/>
<path fill="none" stroke="black" d="M248,-477.5C248,-483.5 242,-489.5 236,-489.5"/>
<polyline fill="none" stroke="black" points="236,-489.5 13,-489.5 "/>
<path fill="none" stroke="black" d="M13,-489.5C7,-489.5 1,-483.5 1,-477.5"/>
<polyline fill="none" stroke="black" points="1,-477.5 1,-381.5 "/>
<path fill="none" stroke="black" d="M1,-381.5C1,-375.5 7,-369.5 13,-369.5"/>
<text text-anchor="middle" x="124.5" y="-472.9" font-family="Times Roman,serif" font-size="14.00">NoticesController</text>
<polyline fill="none" stroke="black" points="1,-463.5 248,-463.5 "/>
<text text-anchor="start" x="9" y="-446.9" font-family="Times Roman,serif" font-size="14.00">_one_time_conditions_valid_580?</text>
<text text-anchor="start" x="9" y="-428.9" font-family="Times Roman,serif" font-size="14.00">create</text>
<polyline fill="none" stroke="black" points="1,-419.5 248,-419.5 "/>
<polyline fill="none" stroke="black" points="1,-395.5 248,-395.5 "/>
<text text-anchor="start" x="9" y="-378.9" font-family="Times Roman,serif" font-size="14.00">_layout</text>
</g>
<!-- ErrorsController -->
<g id="node11" class="node"><title>ErrorsController</title>
<polyline fill="none" stroke="black" points="749,-1.5 853,-1.5 "/>
<path fill="none" stroke="black" d="M853,-1.5C859,-1.5 865,-7.5 865,-13.5"/>
<polyline fill="none" stroke="black" points="865,-13.5 865,-91.5 "/>
<path fill="none" stroke="black" d="M865,-91.5C865,-97.5 859,-103.5 853,-103.5"/>
<polyline fill="none" stroke="black" points="853,-103.5 749,-103.5 "/>
<path fill="none" stroke="black" d="M749,-103.5C743,-103.5 737,-97.5 737,-91.5"/>
<polyline fill="none" stroke="black" points="737,-91.5 737,-13.5 "/>
<path fill="none" stroke="black" d="M737,-13.5C737,-7.5 743,-1.5 749,-1.5"/>
<text text-anchor="middle" x="801" y="-86.9" font-family="Times Roman,serif" font-size="14.00">ErrorsController</text>
<polyline fill="none" stroke="black" points="737,-77.5 865,-77.5 "/>
<text text-anchor="start" x="745" y="-60.9" font-family="Times Roman,serif" font-size="14.00">not_found</text>
<polyline fill="none" stroke="black" points="737,-51.5 865,-51.5 "/>
<polyline fill="none" stroke="black" points="737,-27.5 865,-27.5 "/>
<text text-anchor="start" x="745" y="-10.9" font-family="Times Roman,serif" font-size="14.00">_layout</text>
</g>
<!-- PaymentsController -->
<g id="node12" class="node"><title>PaymentsController</title>
<polyline fill="none" stroke="black" points="749,-139.5 972,-139.5 "/>
<path fill="none" stroke="black" d="M972,-139.5C978,-139.5 984,-145.5 984,-151.5"/>
<polyline fill="none" stroke="black" points="984,-151.5 984,-301.5 "/>
<path fill="none" stroke="black" d="M984,-301.5C984,-307.5 978,-313.5 972,-313.5"/>
<polyline fill="none" stroke="black" points="972,-313.5 749,-313.5 "/>
<path fill="none" stroke="black" d="M749,-313.5C743,-313.5 737,-307.5 737,-301.5"/>
<polyline fill="none" stroke="black" points="737,-301.5 737,-151.5 "/>
<path fill="none" stroke="black" d="M737,-151.5C737,-145.5 743,-139.5 749,-139.5"/>
<text text-anchor="middle" x="860.5" y="-296.9" font-family="Times Roman,serif" font-size="14.00">PaymentsController</text>
<polyline fill="none" stroke="black" points="737,-287.5 984,-287.5 "/>
<text text-anchor="start" x="745" y="-270.9" font-family="Times Roman,serif" font-size="14.00">_one_time_conditions_valid_582?</text>
<text text-anchor="start" x="745" y="-252.9" font-family="Times Roman,serif" font-size="14.00">create</text>
<text text-anchor="start" x="745" y="-234.9" font-family="Times Roman,serif" font-size="14.00">history</text>
<text text-anchor="start" x="745" y="-216.9" font-family="Times Roman,serif" font-size="14.00">index</text>
<text text-anchor="start" x="745" y="-198.9" font-family="Times Roman,serif" font-size="14.00">new</text>
<polyline fill="none" stroke="black" points="737,-189.5 984,-189.5 "/>
<polyline fill="none" stroke="black" points="737,-165.5 984,-165.5 "/>
<text text-anchor="start" x="745" y="-148.9" font-family="Times Roman,serif" font-size="14.00">_layout</text>
</g>
<!-- NotificationsController -->
<g id="node13" class="node"><title>NotificationsController</title>
<polyline fill="none" stroke="black" points="312,-346.5 535,-346.5 "/>
<path fill="none" stroke="black" d="M535,-346.5C541,-346.5 547,-352.5 547,-358.5"/>
<polyline fill="none" stroke="black" points="547,-358.5 547,-652.5 "/>
<path fill="none" stroke="black" d="M547,-652.5C547,-658.5 541,-664.5 535,-664.5"/>
<polyline fill="none" stroke="black" points="535,-664.5 312,-664.5 "/>
<path fill="none" stroke="black" d="M312,-664.5C306,-664.5 300,-658.5 300,-652.5"/>
<polyline fill="none" stroke="black" points="300,-652.5 300,-358.5 "/>
<path fill="none" stroke="black" d="M300,-358.5C300,-352.5 306,-346.5 312,-346.5"/>
<text text-anchor="middle" x="423.5" y="-647.9" font-family="Times Roman,serif" font-size="14.00">NotificationsController</text>
<polyline fill="none" stroke="black" points="300,-638.5 547,-638.5 "/>
<text text-anchor="start" x="308" y="-621.9" font-family="Times Roman,serif" font-size="14.00">_callback_before_583</text>
<text text-anchor="start" x="308" y="-603.9" font-family="Times Roman,serif" font-size="14.00">_one_time_conditions_valid_584?</text>
<text text-anchor="start" x="308" y="-585.9" font-family="Times Roman,serif" font-size="14.00">_one_time_conditions_valid_586?</text>
<text text-anchor="start" x="308" y="-567.9" font-family="Times Roman,serif" font-size="14.00">calculate</text>
<text text-anchor="start" x="308" y="-549.9" font-family="Times Roman,serif" font-size="14.00">create</text>
<text text-anchor="start" x="308" y="-531.9" font-family="Times Roman,serif" font-size="14.00">destroy</text>
<text text-anchor="start" x="308" y="-513.9" font-family="Times Roman,serif" font-size="14.00">edit</text>
<text text-anchor="start" x="308" y="-495.9" font-family="Times Roman,serif" font-size="14.00">new</text>
<text text-anchor="start" x="308" y="-477.9" font-family="Times Roman,serif" font-size="14.00">publish</text>
<text text-anchor="start" x="308" y="-459.9" font-family="Times Roman,serif" font-size="14.00">show</text>
<text text-anchor="start" x="308" y="-441.9" font-family="Times Roman,serif" font-size="14.00">statistics</text>
<text text-anchor="start" x="308" y="-423.9" font-family="Times Roman,serif" font-size="14.00">update</text>
<polyline fill="none" stroke="black" points="300,-414.5 547,-414.5 "/>
<polyline fill="none" stroke="black" points="300,-390.5 547,-390.5 "/>
<text text-anchor="start" x="308" y="-373.9" font-family="Times Roman,serif" font-size="14.00">_layout</text>
<text text-anchor="start" x="308" y="-355.9" font-family="Times Roman,serif" font-size="14.00">service</text>
</g>
<!-- HomeController -->
<g id="node14" class="node"><title>HomeController</title>
<polyline fill="none" stroke="black" points="910,-1.5 1011,-1.5 "/>
<path fill="none" stroke="black" d="M1011,-1.5C1017,-1.5 1023,-7.5 1023,-13.5"/>
<polyline fill="none" stroke="black" points="1023,-13.5 1023,-91.5 "/>
<path fill="none" stroke="black" d="M1023,-91.5C1023,-97.5 1017,-103.5 1011,-103.5"/>
<polyline fill="none" stroke="black" points="1011,-103.5 910,-103.5 "/>
<path fill="none" stroke="black" d="M910,-103.5C904,-103.5 898,-97.5 898,-91.5"/>
<polyline fill="none" stroke="black" points="898,-91.5 898,-13.5 "/>
<path fill="none" stroke="black" d="M898,-13.5C898,-7.5 904,-1.5 910,-1.5"/>
<text text-anchor="middle" x="960.5" y="-86.9" font-family="Times Roman,serif" font-size="14.00">HomeController</text>
<polyline fill="none" stroke="black" points="898,-77.5 1023,-77.5 "/>
<text text-anchor="start" x="906" y="-60.9" font-family="Times Roman,serif" font-size="14.00">index</text>
<polyline fill="none" stroke="black" points="898,-51.5 1023,-51.5 "/>
<polyline fill="none" stroke="black" points="898,-27.5 1023,-27.5 "/>
<text text-anchor="start" x="906" y="-10.9" font-family="Times Roman,serif" font-size="14.00">_layout</text>
</g>
<!-- Admin::ExternalSourcesController -->
<g id="node15" class="node"><title>Admin::ExternalSourcesController</title>
<polyline fill="none" stroke="black" points="910,-346.5 1137,-346.5 "/>
<path fill="none" stroke="black" d="M1137,-346.5C1143,-346.5 1149,-352.5 1149,-358.5"/>
<polyline fill="none" stroke="black" points="1149,-358.5 1149,-472.5 "/>
<path fill="none" stroke="black" d="M1149,-472.5C1149,-478.5 1143,-484.5 1137,-484.5"/>
<polyline fill="none" stroke="black" points="1137,-484.5 910,-484.5 "/>
<path fill="none" stroke="black" d="M910,-484.5C904,-484.5 898,-478.5 898,-472.5"/>
<polyline fill="none" stroke="black" points="898,-472.5 898,-358.5 "/>
<path fill="none" stroke="black" d="M898,-358.5C898,-352.5 904,-346.5 910,-346.5"/>
<text text-anchor="middle" x="1023.5" y="-467.9" font-family="Times Roman,serif" font-size="14.00">Admin::ExternalSourcesController</text>
<polyline fill="none" stroke="black" points="898,-458.5 1149,-458.5 "/>
<text text-anchor="start" x="906" y="-441.9" font-family="Times Roman,serif" font-size="14.00">destroy</text>
<text text-anchor="start" x="906" y="-423.9" font-family="Times Roman,serif" font-size="14.00">index</text>
<text text-anchor="start" x="906" y="-405.9" font-family="Times Roman,serif" font-size="14.00">new</text>
<polyline fill="none" stroke="black" points="898,-396.5 1149,-396.5 "/>
<polyline fill="none" stroke="black" points="898,-372.5 1149,-372.5 "/>
<text text-anchor="start" x="906" y="-355.9" font-family="Times Roman,serif" font-size="14.00">_layout</text>
</g>
<!-- Admin::PaymentTypesController -->
<g id="node16" class="node"><title>Admin::PaymentTypesController</title>
<polyline fill="none" stroke="black" points="36,-921.5 259,-921.5 "/>
<path fill="none" stroke="black" d="M259,-921.5C265,-921.5 271,-927.5 271,-933.5"/>
<polyline fill="none" stroke="black" points="271,-933.5 271,-1137.5 "/>
<path fill="none" stroke="black" d="M271,-1137.5C271,-1143.5 265,-1149.5 259,-1149.5"/>
<polyline fill="none" stroke="black" points="259,-1149.5 36,-1149.5 "/>
<path fill="none" stroke="black" d="M36,-1149.5C30,-1149.5 24,-1143.5 24,-1137.5"/>
<polyline fill="none" stroke="black" points="24,-1137.5 24,-933.5 "/>
<path fill="none" stroke="black" d="M24,-933.5C24,-927.5 30,-921.5 36,-921.5"/>
<text text-anchor="middle" x="147.5" y="-1132.9" font-family="Times Roman,serif" font-size="14.00">Admin::PaymentTypesController</text>
<polyline fill="none" stroke="black" points="24,-1123.5 271,-1123.5 "/>
<text text-anchor="start" x="32" y="-1106.9" font-family="Times Roman,serif" font-size="14.00">_callback_before_589</text>
<text text-anchor="start" x="32" y="-1088.9" font-family="Times Roman,serif" font-size="14.00">_one_time_conditions_valid_590?</text>
<text text-anchor="start" x="32" y="-1070.9" font-family="Times Roman,serif" font-size="14.00">create</text>
<text text-anchor="start" x="32" y="-1052.9" font-family="Times Roman,serif" font-size="14.00">edit</text>
<text text-anchor="start" x="32" y="-1034.9" font-family="Times Roman,serif" font-size="14.00">index</text>
<text text-anchor="start" x="32" y="-1016.9" font-family="Times Roman,serif" font-size="14.00">new</text>
<text text-anchor="start" x="32" y="-998.9" font-family="Times Roman,serif" font-size="14.00">show</text>
<text text-anchor="start" x="32" y="-980.9" font-family="Times Roman,serif" font-size="14.00">update</text>
<polyline fill="none" stroke="black" points="24,-971.5 271,-971.5 "/>
<polyline fill="none" stroke="black" points="24,-947.5 271,-947.5 "/>
<text text-anchor="start" x="32" y="-930.9" font-family="Times Roman,serif" font-size="14.00">_layout</text>
</g>
<!-- Admin::NotificationsController -->
<g id="node17" class="node"><title>Admin::NotificationsController</title>
<polyline fill="none" stroke="black" points="36,-714.5 259,-714.5 "/>
<path fill="none" stroke="black" d="M259,-714.5C265,-714.5 271,-720.5 271,-726.5"/>
<polyline fill="none" stroke="black" points="271,-726.5 271,-858.5 "/>
<path fill="none" stroke="black" d="M271,-858.5C271,-864.5 265,-870.5 259,-870.5"/>
<polyline fill="none" stroke="black" points="259,-870.5 36,-870.5 "/>
<path fill="none" stroke="black" d="M36,-870.5C30,-870.5 24,-864.5 24,-858.5"/>
<polyline fill="none" stroke="black" points="24,-858.5 24,-726.5 "/>
<path fill="none" stroke="black" d="M24,-726.5C24,-720.5 30,-714.5 36,-714.5"/>
<text text-anchor="middle" x="147.5" y="-853.9" font-family="Times Roman,serif" font-size="14.00">Admin::NotificationsController</text>
<polyline fill="none" stroke="black" points="24,-844.5 271,-844.5 "/>
<text text-anchor="start" x="32" y="-827.9" font-family="Times Roman,serif" font-size="14.00">_callback_before_591</text>
<text text-anchor="start" x="32" y="-809.9" font-family="Times Roman,serif" font-size="14.00">_one_time_conditions_valid_592?</text>
<text text-anchor="start" x="32" y="-791.9" font-family="Times Roman,serif" font-size="14.00">index</text>
<text text-anchor="start" x="32" y="-773.9" font-family="Times Roman,serif" font-size="14.00">publish</text>
<polyline fill="none" stroke="black" points="24,-764.5 271,-764.5 "/>
<polyline fill="none" stroke="black" points="24,-740.5 271,-740.5 "/>
<text text-anchor="start" x="32" y="-723.9" font-family="Times Roman,serif" font-size="14.00">_layout</text>
</g>
<!-- Admin::RolesController -->
<g id="node18" class="node"><title>Admin::RolesController</title>
<polyline fill="none" stroke="black" points="335,-714.5 558,-714.5 "/>
<path fill="none" stroke="black" d="M558,-714.5C564,-714.5 570,-720.5 570,-726.5"/>
<polyline fill="none" stroke="black" points="570,-726.5 570,-948.5 "/>
<path fill="none" stroke="black" d="M570,-948.5C570,-954.5 564,-960.5 558,-960.5"/>
<polyline fill="none" stroke="black" points="558,-960.5 335,-960.5 "/>
<path fill="none" stroke="black" d="M335,-960.5C329,-960.5 323,-954.5 323,-948.5"/>
<polyline fill="none" stroke="black" points="323,-948.5 323,-726.5 "/>
<path fill="none" stroke="black" d="M323,-726.5C323,-720.5 329,-714.5 335,-714.5"/>
<text text-anchor="middle" x="446.5" y="-943.9" font-family="Times Roman,serif" font-size="14.00">Admin::RolesController</text>
<polyline fill="none" stroke="black" points="323,-934.5 570,-934.5 "/>
<text text-anchor="start" x="331" y="-917.9" font-family="Times Roman,serif" font-size="14.00">_callback_before_593</text>
<text text-anchor="start" x="331" y="-899.9" font-family="Times Roman,serif" font-size="14.00">_one_time_conditions_valid_594?</text>
<text text-anchor="start" x="331" y="-881.9" font-family="Times Roman,serif" font-size="14.00">create</text>
<text text-anchor="start" x="331" y="-863.9" font-family="Times Roman,serif" font-size="14.00">destroy</text>
<text text-anchor="start" x="331" y="-845.9" font-family="Times Roman,serif" font-size="14.00">edit</text>
<text text-anchor="start" x="331" y="-827.9" font-family="Times Roman,serif" font-size="14.00">index</text>
<text text-anchor="start" x="331" y="-809.9" font-family="Times Roman,serif" font-size="14.00">new</text>
<text text-anchor="start" x="331" y="-791.9" font-family="Times Roman,serif" font-size="14.00">show</text>
<text text-anchor="start" x="331" y="-773.9" font-family="Times Roman,serif" font-size="14.00">update</text>
<polyline fill="none" stroke="black" points="323,-764.5 570,-764.5 "/>
<polyline fill="none" stroke="black" points="323,-740.5 570,-740.5 "/>
<text text-anchor="start" x="331" y="-723.9" font-family="Times Roman,serif" font-size="14.00">_layout</text>
</g>
<!-- Admin::BaseController -->
<g id="node19" class="node"><title>Admin::BaseController</title>
<polyline fill="none" stroke="black" points="933,-530.5 1156,-530.5 "/>
<path fill="none" stroke="black" d="M1156,-530.5C1162,-530.5 1168,-536.5 1168,-542.5"/>
<polyline fill="none" stroke="black" points="1168,-542.5 1168,-656.5 "/>
<path fill="none" stroke="black" d="M1168,-656.5C1168,-662.5 1162,-668.5 1156,-668.5"/>
<polyline fill="none" stroke="black" points="1156,-668.5 933,-668.5 "/>
<path fill="none" stroke="black" d="M933,-668.5C927,-668.5 921,-662.5 921,-656.5"/>
<polyline fill="none" stroke="black" points="921,-656.5 921,-542.5 "/>
<path fill="none" stroke="black" d="M921,-542.5C921,-536.5 927,-530.5 933,-530.5"/>
<text text-anchor="middle" x="1044.5" y="-651.9" font-family="Times Roman,serif" font-size="14.00">Admin::BaseController</text>
<polyline fill="none" stroke="black" points="921,-642.5 1168,-642.5 "/>
<text text-anchor="start" x="929" y="-625.9" font-family="Times Roman,serif" font-size="14.00">_callback_before_587</text>
<text text-anchor="start" x="929" y="-607.9" font-family="Times Roman,serif" font-size="14.00">_one_time_conditions_valid_588?</text>
<text text-anchor="start" x="929" y="-589.9" font-family="Times Roman,serif" font-size="14.00">current_ability</text>
<polyline fill="none" stroke="black" points="921,-580.5 1168,-580.5 "/>
<polyline fill="none" stroke="black" points="921,-556.5 1168,-556.5 "/>
<text text-anchor="start" x="929" y="-539.9" font-family="Times Roman,serif" font-size="14.00">_layout</text>
</g>
</g>
</svg>
