<?xml version="1.0" encoding="UTF-8" standalone="no"?>
<!DOCTYPE svg PUBLIC "-//W3C//DTD SVG 1.1//EN"
 "http://www.w3.org/Graphics/SVG/1.1/DTD/svg11.dtd">
<!-- Generated by graphviz version 2.26.3 (20100126.1600)
 -->
<!-- Title: models_diagram Pages: 1 -->
<svg width="1353pt" height="498pt"
 viewBox="0.00 0.00 1353.00 498.00" xmlns="http://www.w3.org/2000/svg" xmlns:xlink="http://www.w3.org/1999/xlink">
<g id="graph1" class="graph" transform="scale(1 1) rotate(0) translate(4 494)">
<title>models_diagram</title>
<polygon fill="white" stroke="white" points="-4,5 -4,-494 1350,-494 1350,5 -4,5"/>
<!-- _diagram_info -->
<g id="node1" class="node"><title>_diagram_info</title>
<text text-anchor="start" x="174" y="-473.8" font-family="Times Roman,serif" font-size="13.00">Models diagram</text>
<text text-anchor="start" x="174" y="-456.8" font-family="Times Roman,serif" font-size="13.00">Date: Mar 21 2012 &#45; 10:22</text>
<text text-anchor="start" x="174" y="-439.8" font-family="Times Roman,serif" font-size="13.00">Migration version: 20120319121640</text>
<text text-anchor="start" x="174" y="-422.8" font-family="Times Roman,serif" font-size="13.00">Generated by RailRoady 1.0.7</text>
<text text-anchor="start" x="174" y="-405.8" font-family="Times Roman,serif" font-size="13.00">http://railroady.prestonlee.com</text>
</g>
<!-- Ability -->
<g id="node2" class="node"><title>Ability</title>
<polygon fill="none" stroke="black" points="494,-461 434,-461 434,-425 494,-425 494,-461"/>
<text text-anchor="middle" x="464" y="-439.4" font-family="Times Roman,serif" font-size="14.00">Ability</text>
</g>
<!-- Credit -->
<g id="node3" class="node"><title>Credit</title>
<ellipse fill="none" stroke="black" cx="336" cy="-323" rx="41.2167" ry="18.3848"/>
<text text-anchor="middle" x="336" y="-319.4" font-family="Times Roman,serif" font-size="14.00">Credit</text>
</g>
<!-- CreditHistory -->
<g id="node8" class="node"><title>CreditHistory</title>
<ellipse fill="none" stroke="black" cx="336" cy="-247" rx="75.8684" ry="18.3848"/>
<text text-anchor="middle" x="336" y="-243.4" font-family="Times Roman,serif" font-size="14.00">CreditHistory</text>
</g>
<!-- Credit&#45;&gt;CreditHistory -->
<g id="edge2" class="edge"><title>Credit&#45;&gt;CreditHistory</title>
<path fill="none" stroke="#2cb4a7" d="M336,-296.073C336,-289.449 336,-282.332 336,-275.63"/>
<ellipse fill="none" stroke="#2cb4a7" cx="336" cy="-300.213" rx="4" ry="4"/>
<polygon fill="#2cb4a7" stroke="#2cb4a7" points="336,-275.57 340.5,-265.57 336,-270.57 336,-265.57 336,-265.57 336,-265.57 336,-270.57 331.5,-265.57 336,-275.57 336,-275.57"/>
</g>
<!-- Idea -->
<g id="node4" class="node"><title>Idea</title>
<ellipse fill="none" stroke="black" cx="427" cy="-323" rx="32.0265" ry="18.3848"/>
<text text-anchor="middle" x="427" y="-319.4" font-family="Times Roman,serif" font-size="14.00">Idea</text>
</g>
<!-- Admin -->
<g id="node5" class="node"><title>Admin</title>
<polygon fill="none" stroke="black" stroke-dasharray="1,5" points="692,-461 632,-461 632,-425 692,-425 692,-461"/>
<text text-anchor="middle" x="662" y="-439.4" font-family="Times Roman,serif" font-size="14.00">Admin</text>
</g>
<!-- Account -->
<g id="node6" class="node"><title>Account</title>
<ellipse fill="none" stroke="black" cx="563" cy="-443" rx="50.9117" ry="18.3848"/>
<text text-anchor="middle" x="563" y="-439.4" font-family="Times Roman,serif" font-size="14.00">Account</text>
</g>
<!-- Account&#45;&gt;Credit -->
<g id="edge12" class="edge"><title>Account&#45;&gt;Credit</title>
<path fill="none" stroke="#c47080" d="M537.985,-420.491C527.672,-412.011 515.275,-402.786 503,-396 482.33,-384.573 474.822,-387.034 453,-378 424.931,-366.38 393.836,-351.673 370.762,-340.391"/>
<ellipse fill="none" stroke="#c47080" cx="541.055" cy="-423.072" rx="4.00002" ry="4.00002"/>
<ellipse fill="#c47080" stroke="#c47080" cx="367.157" cy="-338.62" rx="4.00002" ry="4.00002"/>
</g>
<!-- Account&#45;&gt;Idea -->
<g id="edge18" class="edge"><title>Account&#45;&gt;Idea</title>
<path fill="none" stroke="#7c6fbc" d="M535.974,-420.675C525.84,-412.613 514.09,-403.627 503,-396 490.188,-387.189 484.819,-388.104 473,-378 462.799,-369.279 453.032,-358.149 445.142,-348.185"/>
<ellipse fill="none" stroke="#7c6fbc" cx="539.258" cy="-423.311" rx="4.00002" ry="4.00002"/>
<polygon fill="#7c6fbc" stroke="#7c6fbc" points="445.077,-348.101 442.557,-337.429 442.032,-344.135 438.988,-340.169 438.988,-340.169 438.988,-340.169 442.032,-344.135 435.418,-342.909 445.077,-348.101 445.077,-348.101"/>
</g>
<!-- Subscription -->
<g id="node7" class="node"><title>Subscription</title>
<ellipse fill="none" stroke="black" cx="662" cy="-247" rx="70.9184" ry="18.3848"/>
<text text-anchor="middle" x="662" y="-243.4" font-family="Times Roman,serif" font-size="14.00">Subscription</text>
</g>
<!-- Account&#45;&gt;Subscription -->
<g id="edge6" class="edge"><title>Account&#45;&gt;Subscription</title>
<path fill="none" stroke="#84acd5" d="M576.117,-417.03C594.823,-379.996 629.007,-312.319 648.122,-274.475"/>
<ellipse fill="none" stroke="#84acd5" cx="574.117" cy="-420.99" rx="4.00002" ry="4.00002"/>
<polygon fill="#84acd5" stroke="#84acd5" points="648.13,-274.459 656.656,-267.562 650.385,-269.996 652.639,-265.533 652.639,-265.533 652.639,-265.533 650.385,-269.996 648.622,-263.504 648.13,-274.459 648.13,-274.459"/>
</g>
<!-- Comment -->
<g id="node15" class="node"><title>Comment</title>
<ellipse fill="none" stroke="black" cx="514" cy="-19" rx="58.1882" ry="18.3848"/>
<text text-anchor="middle" x="514" y="-15.4" font-family="Times Roman,serif" font-size="14.00">Comment</text>
</g>
<!-- Account&#45;&gt;Comment -->
<g id="edge20" class="edge"><title>Account&#45;&gt;Comment</title>
<path fill="none" stroke="#2f3f5b" d="M537.293,-420.007C515.241,-397.64 487,-361.483 487,-323 487,-323 487,-323 487,-95 487,-78.2759 492.877,-60.6142 499.147,-46.53"/>
<ellipse fill="none" stroke="#2f3f5b" cx="540.183" cy="-422.856" rx="4.00002" ry="4.00002"/>
<polygon fill="#2f3f5b" stroke="#2f3f5b" points="499.191,-46.4382 507.548,-39.3383 501.337,-41.9224 503.484,-37.4065 503.484,-37.4065 503.484,-37.4065 501.337,-41.9224 499.419,-35.4747 499.191,-46.4382 499.191,-46.4382"/>
</g>
<!-- Role -->
<g id="node16" class="node"><title>Role</title>
<ellipse fill="none" stroke="black" cx="1313" cy="-323" rx="32.0265" ry="18.3848"/>
<text text-anchor="middle" x="1313" y="-319.4" font-family="Times Roman,serif" font-size="14.00">Role</text>
</g>
<!-- Account&#45;&gt;Role -->
<g id="edge14" class="edge"><title>Account&#45;&gt;Role</title>
<path fill="none" stroke="#253065" d="M587.146,-418.337C597.315,-409.591 609.839,-400.748 623,-396 690.336,-371.709 1202.58,-409.208 1267,-378 1279.73,-371.834 1290.22,-360.306 1297.95,-349.391"/>
<polygon fill="#253065" stroke="#253065" points="586.933,-418.53 576.504,-421.918 583.231,-421.89 579.528,-425.251 579.528,-425.251 579.528,-425.251 583.231,-421.89 582.553,-428.583 586.933,-418.53 586.933,-418.53"/>
<polygon fill="#253065" stroke="#253065" points="1298.06,-349.236 1307.31,-343.357 1300.8,-345.06 1303.55,-340.883 1303.55,-340.883 1303.55,-340.883 1300.8,-345.06 1299.79,-338.409 1298.06,-349.236 1298.06,-349.236"/>
</g>
<!-- Service -->
<g id="node17" class="node"><title>Service</title>
<ellipse fill="none" stroke="black" cx="807" cy="-323" rx="46.8775" ry="18.3848"/>
<text text-anchor="middle" x="807" y="-319.4" font-family="Times Roman,serif" font-size="14.00">Service</text>
</g>
<!-- Account&#45;&gt;Service -->
<g id="edge4" class="edge"><title>Account&#45;&gt;Service</title>
<path fill="none" stroke="#e917b0" d="M590.717,-421.092C600.84,-413.143 612.404,-404.122 623,-396 644.164,-379.777 647.041,-371.709 671,-360 697.007,-347.29 728.019,-338.426 753.857,-332.567"/>
<ellipse fill="none" stroke="#e917b0" cx="587.441" cy="-423.668" rx="4.00002" ry="4.00002"/>
<polygon fill="#e917b0" stroke="#e917b0" points="754.078,-332.519 764.807,-334.788 758.964,-331.455 763.849,-330.391 763.849,-330.391 763.849,-330.391 758.964,-331.455 762.892,-325.994 754.078,-332.519 754.078,-332.519"/>
<text text-anchor="middle" x="717.5" y="-365.4" font-family="Times Roman,serif" font-size="14.00">own_services</text>
</g>
<!-- Account&#45;&gt;Service -->
<g id="edge10" class="edge"><title>Account&#45;&gt;Service</title>
<path fill="none" stroke="#31919d" d="M587.864,-418.617C597.982,-410.083 610.283,-401.313 623,-396 681.293,-371.647 709.085,-409.232 764,-378 775.606,-371.399 785.185,-360.296 792.334,-349.786"/>
<polygon fill="#31919d" stroke="#31919d" points="587.746,-418.721 577.272,-421.967 583.998,-422.031 580.251,-425.34 580.251,-425.34 580.251,-425.34 583.998,-422.031 583.229,-428.713 587.746,-418.721 587.746,-418.721"/>
<polygon fill="#31919d" stroke="#31919d" points="792.412,-349.662 801.561,-343.615 795.085,-345.436 797.758,-341.21 797.758,-341.21 797.758,-341.21 795.085,-345.436 793.954,-338.805 792.412,-349.662 792.412,-349.662"/>
</g>
<!-- Notification -->
<g id="node19" class="node"><title>Notification</title>
<ellipse fill="none" stroke="black" cx="582" cy="-95" rx="67.1751" ry="18.3848"/>
<text text-anchor="middle" x="582" y="-91.4" font-family="Times Roman,serif" font-size="14.00">Notification</text>
</g>
<!-- Account&#45;&gt;Notification -->
<g id="edge16" class="edge"><title>Account&#45;&gt;Notification</title>
<path fill="none" stroke="#a2e095" d="M549.774,-417.197C538.805,-393.386 525,-356.719 525,-323 525,-323 525,-323 525,-171 525,-151.1 537.662,-133.076 551.05,-119.58"/>
<ellipse fill="none" stroke="#a2e095" cx="551.501" cy="-420.841" rx="4.00002" ry="4.00002"/>
<polygon fill="#a2e095" stroke="#a2e095" points="551.212,-119.427 561.575,-115.838 554.85,-115.996 558.487,-112.565 558.487,-112.565 558.487,-112.565 554.85,-115.996 555.399,-109.292 551.212,-119.427 551.212,-119.427"/>
</g>
<!-- Notice -->
<g id="node22" class="node"><title>Notice</title>
<ellipse fill="none" stroke="black" cx="677" cy="-19" rx="41.9273" ry="18.3848"/>
<text text-anchor="middle" x="677" y="-15.4" font-family="Times Roman,serif" font-size="14.00">Notice</text>
</g>
<!-- Account&#45;&gt;Notice -->
<g id="edge8" class="edge"><title>Account&#45;&gt;Notice</title>
<path fill="none" stroke="#e1b16c" d="M587.583,-418.688C597.739,-410.077 610.138,-401.235 623,-396 691.325,-368.188 714.704,-386.333 788,-378 891.388,-366.247 1253,-427.054 1253,-323 1253,-323 1253,-323 1253,-95 1253,-42.4768 871.698,-25.1111 729.566,-20.4624"/>
<polygon fill="#e1b16c" stroke="#e1b16c" points="587.428,-418.827 576.964,-422.108 583.691,-422.149 579.955,-425.471 579.955,-425.471 579.955,-425.471 583.691,-422.149 582.945,-428.834 587.428,-418.827 587.428,-418.827"/>
<polygon fill="#e1b16c" stroke="#e1b16c" points="729.35,-20.4556 719.498,-15.6393 724.352,-20.2963 719.355,-20.137 719.355,-20.137 719.355,-20.137 724.352,-20.2963 719.211,-24.6347 729.35,-20.4556 729.35,-20.4556"/>
</g>
<!-- Selection -->
<g id="node11" class="node"><title>Selection</title>
<ellipse fill="none" stroke="black" cx="875" cy="-171" rx="56.0679" ry="18.3848"/>
<text text-anchor="middle" x="875" y="-167.4" font-family="Times Roman,serif" font-size="14.00">Selection</text>
</g>
<!-- Subscription&#45;&gt;Selection -->
<g id="edge22" class="edge"><title>Subscription&#45;&gt;Selection</title>
<path fill="none" stroke="#e41d96" d="M713.945,-228.465C748.536,-216.123 793.644,-200.029 827.32,-188.013"/>
<polygon fill="#e41d96" stroke="#e41d96" points="713.5,-228.624 702.57,-227.747 708.791,-230.305 704.082,-231.985 704.082,-231.985 704.082,-231.985 708.791,-230.305 705.594,-236.223 713.5,-228.624 713.5,-228.624"/>
<polygon fill="#e41d96" stroke="#e41d96" points="827.519,-187.942 838.449,-188.819 832.228,-186.261 836.937,-184.581 836.937,-184.581 836.937,-184.581 832.228,-186.261 835.425,-180.343 827.519,-187.942 827.519,-187.942"/>
</g>
<!-- Subscription&#45;&gt;Notification -->
<g id="edge26" class="edge"><title>Subscription&#45;&gt;Notification</title>
<path fill="none" stroke="#2da05b" d="M647.667,-219.767C633.202,-192.284 610.985,-150.072 596.471,-122.495"/>
<polygon fill="#2da05b" stroke="#2da05b" points="647.693,-219.816 648.368,-230.761 650.021,-224.241 652.35,-228.665 652.35,-228.665 652.35,-228.665 650.021,-224.241 656.332,-226.569 647.693,-219.816 647.693,-219.816"/>
<polygon fill="#2da05b" stroke="#2da05b" points="596.342,-122.249 595.666,-111.304 594.013,-117.824 591.684,-113.4 591.684,-113.4 591.684,-113.4 594.013,-117.824 587.702,-115.496 596.342,-122.249 596.342,-122.249"/>
</g>
<!-- Subscription&#45;&gt;Notice -->
<g id="edge24" class="edge"><title>Subscription&#45;&gt;Notice</title>
<path fill="none" stroke="#7314ef" d="M663.764,-220.192C666.609,-176.946 672.187,-92.154 675.111,-47.7187"/>
<ellipse fill="none" stroke="#7314ef" cx="663.49" cy="-224.35" rx="4" ry="4"/>
<polygon fill="#7314ef" stroke="#7314ef" points="675.12,-47.5747 680.267,-37.8917 675.448,-42.5855 675.777,-37.5962 675.777,-37.5962 675.777,-37.5962 675.448,-42.5855 671.286,-37.3008 675.12,-47.5747 675.12,-47.5747"/>
</g>
<!-- AccountCredit -->
<g id="node9" class="node"><title>AccountCredit</title>
<ellipse fill="none" stroke="black" cx="790" cy="-443" rx="80.1095" ry="18.3848"/>
<text text-anchor="middle" x="790" y="-439.4" font-family="Times Roman,serif" font-size="14.00">AccountCredit</text>
</g>
<!-- GoogleAlertFeed -->
<g id="node10" class="node"><title>GoogleAlertFeed</title>
<ellipse fill="none" stroke="black" cx="1133" cy="-247" rx="92.1303" ry="18.3848"/>
<text text-anchor="middle" x="1133" y="-243.4" font-family="Times Roman,serif" font-size="14.00">GoogleAlertFeed</text>
</g>
<!-- ExternalSource -->
<g id="node21" class="node"><title>ExternalSource</title>
<ellipse fill="none" stroke="black" cx="1133" cy="-171" rx="85.7684" ry="18.3848"/>
<text text-anchor="middle" x="1133" y="-167.4" font-family="Times Roman,serif" font-size="14.00">ExternalSource</text>
</g>
<!-- GoogleAlertFeed&#45;&gt;ExternalSource -->
<g id="edge28" class="edge"><title>GoogleAlertFeed&#45;&gt;ExternalSource</title>
<path fill="none" stroke="#c2823c" d="M1133,-220.073C1133,-213.449 1133,-206.332 1133,-199.63"/>
<ellipse fill="none" stroke="#c2823c" cx="1133" cy="-224.213" rx="4" ry="4"/>
<polygon fill="#c2823c" stroke="#c2823c" points="1133,-199.57 1137.5,-189.57 1133,-194.57 1133,-189.57 1133,-189.57 1133,-189.57 1133,-194.57 1128.5,-189.57 1133,-199.57 1133,-199.57"/>
</g>
<!-- Selection&#45;&gt;Notification -->
<g id="edge30" class="edge"><title>Selection&#45;&gt;Notification</title>
<path fill="none" stroke="#7c6392" d="M821.012,-156.996C769.923,-143.745 693.428,-123.903 640.811,-110.255"/>
<polygon fill="#7c6392" stroke="#7c6392" points="821.138,-157.029 829.688,-163.896 825.978,-158.284 830.818,-159.54 830.818,-159.54 830.818,-159.54 825.978,-158.284 831.948,-155.184 821.138,-157.029 821.138,-157.029"/>
<polygon fill="#7c6392" stroke="#7c6392" points="640.628,-110.207 632.079,-103.341 635.789,-108.952 630.949,-107.697 630.949,-107.697 630.949,-107.697 635.789,-108.952 629.819,-112.052 640.628,-110.207 640.628,-110.207"/>
</g>
<!-- AdminAbility -->
<g id="node12" class="node"><title>AdminAbility</title>
<polygon fill="none" stroke="black" points="992,-461 888,-461 888,-425 992,-425 992,-461"/>
<text text-anchor="middle" x="940" y="-439.4" font-family="Times Roman,serif" font-size="14.00">AdminAbility</text>
</g>
<!-- Filter -->
<g id="node13" class="node"><title>Filter</title>
<ellipse fill="none" stroke="black" cx="986" cy="-247" rx="36.7696" ry="18.3848"/>
<text text-anchor="middle" x="986" y="-243.4" font-family="Times Roman,serif" font-size="14.00">Filter</text>
</g>
<!-- Filter&#45;&gt;Selection -->
<g id="edge32" class="edge"><title>Filter&#45;&gt;Selection</title>
<path fill="none" stroke="#3c29eb" d="M959.656,-226.056C951.839,-220.06 943.178,-213.628 935,-208 927.455,-202.808 919.194,-197.49 911.281,-192.563"/>
<ellipse fill="none" stroke="#3c29eb" cx="962.832" cy="-228.514" rx="4.00002" ry="4.00002"/>
<polygon fill="#3c29eb" stroke="#3c29eb" points="911.068,-192.432 904.907,-183.361 906.809,-189.813 902.55,-187.194 902.55,-187.194 902.55,-187.194 906.809,-189.813 900.193,-191.027 911.068,-192.432 911.068,-192.432"/>
</g>
<!-- PaymentType -->
<g id="node14" class="node"><title>PaymentType</title>
<ellipse fill="none" stroke="black" cx="160" cy="-323" rx="77.0746" ry="18.3848"/>
<text text-anchor="middle" x="160" y="-319.4" font-family="Times Roman,serif" font-size="14.00">PaymentType</text>
</g>
<!-- PaymentType&#45;&gt;CreditHistory -->
<g id="edge34" class="edge"><title>PaymentType&#45;&gt;CreditHistory</title>
<path fill="none" stroke="#6d1c1d" d="M205.31,-303.434C231.093,-292.301 263.328,-278.381 289.333,-267.152"/>
<ellipse fill="none" stroke="#6d1c1d" cx="201.429" cy="-305.11" rx="4.00002" ry="4.00002"/>
<polygon fill="#6d1c1d" stroke="#6d1c1d" points="289.428,-267.111 300.392,-267.278 294.018,-265.129 298.608,-263.146 298.608,-263.146 298.608,-263.146 294.018,-265.129 296.824,-259.015 289.428,-267.111 289.428,-267.111"/>
</g>
<!-- PaymentTypeSelection -->
<g id="node18" class="node"><title>PaymentTypeSelection</title>
<ellipse fill="none" stroke="black" cx="121" cy="-247" rx="121.122" ry="18.3848"/>
<text text-anchor="middle" x="121" y="-243.4" font-family="Times Roman,serif" font-size="14.00">PaymentTypeSelection</text>
</g>
<!-- PaymentType&#45;&gt;PaymentTypeSelection -->
<g id="edge36" class="edge"><title>PaymentType&#45;&gt;PaymentTypeSelection</title>
<path fill="none" stroke="#18200f" d="M146.813,-297.303C143.049,-289.968 138.933,-281.947 135.116,-274.508"/>
<ellipse fill="none" stroke="#18200f" cx="148.733" cy="-301.044" rx="4.00002" ry="4.00002"/>
<polygon fill="#18200f" stroke="#18200f" points="135.055,-274.388 134.493,-263.437 132.772,-269.94 130.489,-265.491 130.489,-265.491 130.489,-265.491 132.772,-269.94 126.485,-267.546 135.055,-274.388 135.055,-274.388"/>
</g>
<!-- Comment&#45;&gt;Comment -->
<g id="edge38" class="edge"><title>Comment&#45;&gt;Comment</title>
<path fill="none" stroke="#2e65c3" d="M576.002,-25.3238C584.404,-24.2651 590,-22.1572 590,-19 590,-16.1298 585.375,-14.1268 578.221,-12.9909"/>
<ellipse fill="none" stroke="#2e65c3" cx="571.952" cy="-25.6565" rx="4" ry="4"/>
<polygon fill="#2e65c3" stroke="#2e65c3" points="577.921,-12.9624 568.391,-7.5361 572.943,-12.4891 567.965,-12.0159 567.965,-12.0159 567.965,-12.0159 572.943,-12.4891 567.539,-16.4957 577.921,-12.9624 577.921,-12.9624"/>
</g>
<!-- Service&#45;&gt;Subscription -->
<g id="edge48" class="edge"><title>Service&#45;&gt;Subscription</title>
<path fill="none" stroke="#d79800" d="M771.569,-304.429C750.763,-293.524 724.384,-279.698 702.724,-268.345"/>
<ellipse fill="none" stroke="#d79800" cx="775.155" cy="-306.309" rx="4.00002" ry="4.00002"/>
<polygon fill="#d79800" stroke="#d79800" points="702.616,-268.289 695.848,-259.661 698.188,-265.967 693.759,-263.646 693.759,-263.646 693.759,-263.646 698.188,-265.967 691.67,-267.632 702.616,-268.289 702.616,-268.289"/>
</g>
<!-- Service&#45;&gt;GoogleAlertFeed -->
<g id="edge50" class="edge"><title>Service&#45;&gt;GoogleAlertFeed</title>
<path fill="none" stroke="#5a6835" d="M855.527,-311.687C910.446,-298.884 1000.37,-277.919 1062.91,-263.34"/>
<ellipse fill="none" stroke="#5a6835" cx="851.525" cy="-312.62" rx="4.00001" ry="4.00001"/>
<polygon fill="#5a6835" stroke="#5a6835" points="1062.96,-263.328 1073.72,-265.44 1067.83,-262.192 1072.7,-261.057 1072.7,-261.057 1072.7,-261.057 1067.83,-262.192 1071.68,-256.675 1062.96,-263.328 1062.96,-263.328"/>
</g>
<!-- Service&#45;&gt;Selection -->
<g id="edge42" class="edge"><title>Service&#45;&gt;Selection</title>
<path fill="none" stroke="#a178cd" d="M853.252,-306.994C871.853,-298.015 891.38,-284.757 902,-266 914.033,-244.747 904.317,-217.733 893.328,-197.949"/>
<polygon fill="#a178cd" stroke="#a178cd" points="853.068,-307.077 842.102,-307.082 848.51,-309.131 843.951,-311.185 843.951,-311.185 843.951,-311.185 848.51,-309.131 845.799,-315.287 853.068,-307.077 853.068,-307.077"/>
<polygon fill="#a178cd" stroke="#a178cd" points="893.204,-197.741 891.961,-186.846 890.649,-193.443 888.093,-189.145 888.093,-189.145 888.093,-189.145 890.649,-193.443 884.226,-191.445 893.204,-197.741 893.204,-197.741"/>
</g>
<!-- Service&#45;&gt;Filter -->
<g id="edge40" class="edge"><title>Service&#45;&gt;Filter</title>
<path fill="none" stroke="#94ee4f" d="M857.427,-313.006C881.679,-307.068 910.691,-298.26 935,-286 943.77,-281.577 952.546,-275.577 960.284,-269.611"/>
<ellipse fill="none" stroke="#94ee4f" cx="853.29" cy="-313.987" rx="4.00001" ry="4.00001"/>
<polygon fill="#94ee4f" stroke="#94ee4f" points="960.431,-269.493 971.044,-266.733 964.328,-266.359 968.224,-263.226 968.224,-263.226 968.224,-263.226 964.328,-266.359 965.404,-259.719 960.431,-269.493 960.431,-269.493"/>
</g>
<!-- Service&#45;&gt;Notification -->
<g id="edge46" class="edge"><title>Service&#45;&gt;Notification</title>
<path fill="none" stroke="#6492e4" d="M753.495,-316.975C693.808,-309.023 602.86,-292.803 582,-266 550.084,-224.99 561.814,-160.115 572.424,-123.184"/>
<ellipse fill="none" stroke="#6492e4" cx="757.733" cy="-317.526" rx="4.00001" ry="4.00001"/>
<polygon fill="#6492e4" stroke="#6492e4" points="572.444,-123.12 579.656,-114.859 573.897,-118.335 575.35,-113.551 575.35,-113.551 575.35,-113.551 573.897,-118.335 571.045,-112.243 572.444,-123.12 572.444,-123.12"/>
</g>
<!-- ServicePrice -->
<g id="node20" class="node"><title>ServicePrice</title>
<ellipse fill="none" stroke="black" cx="822" cy="-247" rx="70.9184" ry="18.3848"/>
<text text-anchor="middle" x="822" y="-243.4" font-family="Times Roman,serif" font-size="14.00">ServicePrice</text>
</g>
<!-- Service&#45;&gt;ServicePrice -->
<g id="edge44" class="edge"><title>Service&#45;&gt;ServicePrice</title>
<path fill="none" stroke="#e26ae4" d="M812.315,-296.073C813.747,-288.818 815.295,-280.972 816.725,-273.727"/>
<ellipse fill="none" stroke="#e26ae4" cx="811.482" cy="-300.289" rx="4.00001" ry="4.00001"/>
<ellipse fill="#e26ae4" stroke="#e26ae4" cx="817.56" cy="-269.495" rx="4.00001" ry="4.00001"/>
</g>
<!-- Notification&#45;&gt;Comment -->
<g id="edge54" class="edge"><title>Notification&#45;&gt;Comment</title>
<path fill="none" stroke="#fc6085" d="M560.306,-70.7538C552.774,-62.3352 544.31,-52.8756 536.698,-44.3689"/>
<ellipse fill="none" stroke="#fc6085" cx="563.218" cy="-74.0081" rx="4.00002" ry="4.00002"/>
<polygon fill="#fc6085" stroke="#fc6085" points="536.667,-44.3341 533.353,-33.8811 533.333,-40.6079 529.999,-36.8817 529.999,-36.8817 529.999,-36.8817 533.333,-40.6079 526.646,-39.8822 536.667,-44.3341 536.667,-44.3341"/>
</g>
<!-- Notification&#45;&gt;Notice -->
<g id="edge52" class="edge"><title>Notification&#45;&gt;Notice</title>
<path fill="none" stroke="#04cf8b" d="M610.627,-72.0987C622.698,-62.4415 636.712,-51.2306 648.743,-41.6056"/>
<ellipse fill="none" stroke="#04cf8b" cx="607.157" cy="-74.8742" rx="4.00002" ry="4.00002"/>
<polygon fill="#04cf8b" stroke="#04cf8b" points="648.899,-41.481 659.519,-38.7479 652.803,-38.3575 656.708,-35.234 656.708,-35.234 656.708,-35.234 652.803,-38.3575 653.896,-31.7201 648.899,-41.481 648.899,-41.481"/>
</g>
</g>
</svg>
