<?xml version="1.0" encoding="UTF-8" standalone="no"?>
<!DOCTYPE svg PUBLIC "-//W3C//DTD SVG 1.1//EN"
 "http://www.w3.org/Graphics/SVG/1.1/DTD/svg11.dtd">
<!-- Generated by graphviz version 2.26.3 (20100126.1600)
 -->
<!-- Title: models_diagram Pages: 1 -->
<svg width="1677pt" height="1168pt"
 viewBox="0.00 0.00 1677.00 1168.00" xmlns="http://www.w3.org/2000/svg" xmlns:xlink="http://www.w3.org/1999/xlink">
<g id="graph1" class="graph" transform="scale(1 1) rotate(0) translate(4 1164)">
<title>models_diagram</title>
<polygon fill="white" stroke="white" points="-4,5 -4,-1164 1674,-1164 1674,5 -4,5"/>
<!-- _diagram_info -->
<g id="node1" class="node"><title>_diagram_info</title>
<text text-anchor="start" x="196" y="-1073.8" font-family="Times Roman,serif" font-size="13.00">Models diagram</text>
<text text-anchor="start" x="196" y="-1056.8" font-family="Times Roman,serif" font-size="13.00">Date: Mar 21 2012 &#45; 10:22</text>
<text text-anchor="start" x="196" y="-1039.8" font-family="Times Roman,serif" font-size="13.00">Migration version: 20120319121640</text>
<text text-anchor="start" x="196" y="-1022.8" font-family="Times Roman,serif" font-size="13.00">Generated by RailRoady 1.0.7</text>
<text text-anchor="start" x="196" y="-1005.8" font-family="Times Roman,serif" font-size="13.00">http://railroady.prestonlee.com</text>
</g>
<!-- Ability -->
<g id="node2" class="node"><title>Ability</title>
<polygon fill="none" stroke="black" points="456,-1017 456,-1069 516,-1069 516,-1017 456,-1017"/>
<text text-anchor="middle" x="486" y="-1052.4" font-family="Times Roman,serif" font-size="14.00">Ability</text>
<polyline fill="none" stroke="black" points="456,-1043 516,-1043 "/>
<text text-anchor="middle" x="486" y="-1026.4" font-family="Times Roman,serif" font-size="14.00"> </text>
</g>
<!-- Credit -->
<g id="node3" class="node"><title>Credit</title>
<polyline fill="none" stroke="black" points="216.5,-765 363.5,-765 "/>
<path fill="none" stroke="black" d="M363.5,-765C369.5,-765 375.5,-771 375.5,-777"/>
<polyline fill="none" stroke="black" points="375.5,-777 375.5,-823 "/>
<path fill="none" stroke="black" d="M375.5,-823C375.5,-829 369.5,-835 363.5,-835"/>
<polyline fill="none" stroke="black" points="363.5,-835 216.5,-835 "/>
<path fill="none" stroke="black" d="M216.5,-835C210.5,-835 204.5,-829 204.5,-823"/>
<polyline fill="none" stroke="black" points="204.5,-823 204.5,-777 "/>
<path fill="none" stroke="black" d="M204.5,-777C204.5,-771 210.5,-765 216.5,-765"/>
<text text-anchor="middle" x="290" y="-818.4" font-family="Times Roman,serif" font-size="14.00">Credit</text>
<polyline fill="none" stroke="black" points="204.5,-809 375.5,-809 "/>
<text text-anchor="start" x="212.5" y="-792.4" font-family="Times Roman,serif" font-size="14.00">creditable_type :string</text>
<text text-anchor="start" x="212.5" y="-774.4" font-family="Times Roman,serif" font-size="14.00">credit :integer</text>
</g>
<!-- CreditHistory -->
<g id="node8" class="node"><title>CreditHistory</title>
<polyline fill="none" stroke="black" points="201.5,-565 378.5,-565 "/>
<path fill="none" stroke="black" d="M378.5,-565C384.5,-565 390.5,-571 390.5,-577"/>
<polyline fill="none" stroke="black" points="390.5,-577 390.5,-677 "/>
<path fill="none" stroke="black" d="M390.5,-677C390.5,-683 384.5,-689 378.5,-689"/>
<polyline fill="none" stroke="black" points="378.5,-689 201.5,-689 "/>
<path fill="none" stroke="black" d="M201.5,-689C195.5,-689 189.5,-683 189.5,-677"/>
<polyline fill="none" stroke="black" points="189.5,-677 189.5,-577 "/>
<path fill="none" stroke="black" d="M189.5,-577C189.5,-571 195.5,-565 201.5,-565"/>
<text text-anchor="middle" x="290" y="-672.4" font-family="Times Roman,serif" font-size="14.00">CreditHistory</text>
<polyline fill="none" stroke="black" points="189.5,-663 390.5,-663 "/>
<text text-anchor="start" x="197.5" y="-646.4" font-family="Times Roman,serif" font-size="14.00">credit_datable_type :string</text>
<text text-anchor="start" x="197.5" y="-628.4" font-family="Times Roman,serif" font-size="14.00">credit_quantity :integer</text>
<text text-anchor="start" x="197.5" y="-610.4" font-family="Times Roman,serif" font-size="14.00">price :decimal</text>
<text text-anchor="start" x="197.5" y="-592.4" font-family="Times Roman,serif" font-size="14.00">created_at :datetime</text>
<text text-anchor="start" x="197.5" y="-574.4" font-family="Times Roman,serif" font-size="14.00">updated_at :datetime</text>
</g>
<!-- Credit&#45;&gt;CreditHistory -->
<g id="edge2" class="edge"><title>Credit&#45;&gt;CreditHistory</title>
<path fill="none" stroke="#fbb355" d="M290,-756.818C290,-739.434 290,-718.905 290,-699.365"/>
<ellipse fill="none" stroke="#fbb355" cx="290" cy="-760.991" rx="4" ry="4"/>
<polygon fill="#fbb355" stroke="#fbb355" points="290,-699.258 294.5,-689.258 290,-694.258 290,-689.258 290,-689.258 290,-689.258 290,-694.258 285.5,-689.258 290,-699.258 290,-699.258"/>
</g>
<!-- Idea -->
<g id="node4" class="node"><title>Idea</title>
<polyline fill="none" stroke="black" points="404.5,-738 545.5,-738 "/>
<path fill="none" stroke="black" d="M545.5,-738C551.5,-738 557.5,-744 557.5,-750"/>
<polyline fill="none" stroke="black" points="557.5,-750 557.5,-850 "/>
<path fill="none" stroke="black" d="M557.5,-850C557.5,-856 551.5,-862 545.5,-862"/>
<polyline fill="none" stroke="black" points="545.5,-862 404.5,-862 "/>
<path fill="none" stroke="black" d="M404.5,-862C398.5,-862 392.5,-856 392.5,-850"/>
<polyline fill="none" stroke="black" points="392.5,-850 392.5,-750 "/>
<path fill="none" stroke="black" d="M392.5,-750C392.5,-744 398.5,-738 404.5,-738"/>
<text text-anchor="middle" x="475" y="-845.4" font-family="Times Roman,serif" font-size="14.00">Idea</text>
<polyline fill="none" stroke="black" points="392.5,-836 557.5,-836 "/>
<text text-anchor="start" x="400.5" y="-819.4" font-family="Times Roman,serif" font-size="14.00">search_string :string</text>
<text text-anchor="start" x="400.5" y="-801.4" font-family="Times Roman,serif" font-size="14.00">suggestion :text</text>
<text text-anchor="start" x="400.5" y="-783.4" font-family="Times Roman,serif" font-size="14.00">email :string</text>
<text text-anchor="start" x="400.5" y="-765.4" font-family="Times Roman,serif" font-size="14.00">created_at :datetime</text>
<text text-anchor="start" x="400.5" y="-747.4" font-family="Times Roman,serif" font-size="14.00">updated_at :datetime</text>
</g>
<!-- Admin -->
<g id="node5" class="node"><title>Admin</title>
<polygon fill="none" stroke="black" stroke-dasharray="1,5" points="866,-1061 806,-1061 806,-1025 866,-1025 866,-1061"/>
<text text-anchor="middle" x="836" y="-1039.4" font-family="Times Roman,serif" font-size="14.00">Admin</text>
</g>
<!-- Account -->
<g id="node6" class="node"><title>Account</title>
<polyline fill="none" stroke="black" points="546,-927 776,-927 "/>
<path fill="none" stroke="black" d="M776,-927C782,-927 788,-933 788,-939"/>
<polyline fill="none" stroke="black" points="788,-939 788,-1147 "/>
<path fill="none" stroke="black" d="M788,-1147C788,-1153 782,-1159 776,-1159"/>
<polyline fill="none" stroke="black" points="776,-1159 546,-1159 "/>
<path fill="none" stroke="black" d="M546,-1159C540,-1159 534,-1153 534,-1147"/>
<polyline fill="none" stroke="black" points="534,-1147 534,-939 "/>
<path fill="none" stroke="black" d="M534,-939C534,-933 540,-927 546,-927"/>
<text text-anchor="middle" x="661" y="-1142.4" font-family="Times Roman,serif" font-size="14.00">Account</text>
<polyline fill="none" stroke="black" points="534,-1133 788,-1133 "/>
<text text-anchor="start" x="542" y="-1116.4" font-family="Times Roman,serif" font-size="14.00">email :string</text>
<text text-anchor="start" x="542" y="-1098.4" font-family="Times Roman,serif" font-size="14.00">encrypted_password :string</text>
<text text-anchor="start" x="542" y="-1080.4" font-family="Times Roman,serif" font-size="14.00">reset_password_token :string</text>
<text text-anchor="start" x="542" y="-1062.4" font-family="Times Roman,serif" font-size="14.00">reset_password_sent_at :datetime</text>
<text text-anchor="start" x="542" y="-1044.4" font-family="Times Roman,serif" font-size="14.00">remember_created_at :datetime</text>
<text text-anchor="start" x="542" y="-1026.4" font-family="Times Roman,serif" font-size="14.00">current_sign_in_at :datetime</text>
<text text-anchor="start" x="542" y="-1008.4" font-family="Times Roman,serif" font-size="14.00">last_sign_in_at :datetime</text>
<text text-anchor="start" x="542" y="-990.4" font-family="Times Roman,serif" font-size="14.00">current_sign_in_ip :string</text>
<text text-anchor="start" x="542" y="-972.4" font-family="Times Roman,serif" font-size="14.00">last_sign_in_ip :string</text>
<text text-anchor="start" x="542" y="-954.4" font-family="Times Roman,serif" font-size="14.00">created_at :datetime</text>
<text text-anchor="start" x="542" y="-936.4" font-family="Times Roman,serif" font-size="14.00">updated_at :datetime</text>
</g>
<!-- Account&#45;&gt;Credit -->
<g id="edge12" class="edge"><title>Account&#45;&gt;Credit</title>
<path fill="none" stroke="#1ff19c" d="M526.93,-927.162C526.287,-926.771 525.644,-926.384 525,-926 467.378,-891.609 442.576,-904.741 384,-872 367.973,-863.041 351.686,-851.569 337.272,-840.428"/>
<ellipse fill="none" stroke="#1ff19c" cx="530.421" cy="-929.338" rx="4.00002" ry="4.00002"/>
<ellipse fill="#1ff19c" stroke="#1ff19c" cx="333.937" cy="-837.811" rx="4.00002" ry="4.00002"/>
</g>
<!-- Account&#45;&gt;Idea -->
<g id="edge18" class="edge"><title>Account&#45;&gt;Idea</title>
<path fill="none" stroke="#77e4e5" d="M567.075,-920.292C553.931,-903.119 540.811,-885.979 528.766,-870.243"/>
<ellipse fill="none" stroke="#77e4e5" cx="569.654" cy="-923.661" rx="4.00002" ry="4.00002"/>
<polygon fill="#77e4e5" stroke="#77e4e5" points="528.649,-870.09 526.144,-859.414 525.61,-866.119 522.571,-862.149 522.571,-862.149 522.571,-862.149 525.61,-866.119 518.998,-864.884 528.649,-870.09 528.649,-870.09"/>
</g>
<!-- Subscription -->
<g id="node7" class="node"><title>Subscription</title>
<polyline fill="none" stroke="black" points="700.5,-565 841.5,-565 "/>
<path fill="none" stroke="black" d="M841.5,-565C847.5,-565 853.5,-571 853.5,-577"/>
<polyline fill="none" stroke="black" points="853.5,-577 853.5,-677 "/>
<path fill="none" stroke="black" d="M853.5,-677C853.5,-683 847.5,-689 841.5,-689"/>
<polyline fill="none" stroke="black" points="841.5,-689 700.5,-689 "/>
<path fill="none" stroke="black" d="M700.5,-689C694.5,-689 688.5,-683 688.5,-677"/>
<polyline fill="none" stroke="black" points="688.5,-677 688.5,-577 "/>
<path fill="none" stroke="black" d="M688.5,-577C688.5,-571 694.5,-565 700.5,-565"/>
<text text-anchor="middle" x="771" y="-672.4" font-family="Times Roman,serif" font-size="14.00">Subscription</text>
<polyline fill="none" stroke="black" points="688.5,-663 853.5,-663 "/>
<text text-anchor="start" x="696.5" y="-646.4" font-family="Times Roman,serif" font-size="14.00">email :boolean</text>
<text text-anchor="start" x="696.5" y="-628.4" font-family="Times Roman,serif" font-size="14.00">sms :boolean</text>
<text text-anchor="start" x="696.5" y="-610.4" font-family="Times Roman,serif" font-size="14.00">active :boolean</text>
<text text-anchor="start" x="696.5" y="-592.4" font-family="Times Roman,serif" font-size="14.00">created_at :datetime</text>
<text text-anchor="start" x="696.5" y="-574.4" font-family="Times Roman,serif" font-size="14.00">updated_at :datetime</text>
</g>
<!-- Account&#45;&gt;Subscription -->
<g id="edge6" class="edge"><title>Account&#45;&gt;Subscription</title>
<path fill="none" stroke="#9029b1" d="M693.761,-919.102C712.742,-847.321 735.972,-759.471 751.97,-698.969"/>
<ellipse fill="none" stroke="#9029b1" cx="692.737" cy="-922.977" rx="4.00001" ry="4.00001"/>
<polygon fill="#9029b1" stroke="#9029b1" points="752.016,-698.795 758.923,-690.277 753.294,-693.961 754.572,-689.127 754.572,-689.127 754.572,-689.127 753.294,-693.961 750.222,-687.976 752.016,-698.795 752.016,-698.795"/>
</g>
<!-- Comment -->
<g id="node14" class="node"><title>Comment</title>
<polyline fill="none" stroke="black" points="540.5,-10 681.5,-10 "/>
<path fill="none" stroke="black" d="M681.5,-10C687.5,-10 693.5,-16 693.5,-22"/>
<polyline fill="none" stroke="black" points="693.5,-22 693.5,-104 "/>
<path fill="none" stroke="black" d="M693.5,-104C693.5,-110 687.5,-116 681.5,-116"/>
<polyline fill="none" stroke="black" points="681.5,-116 540.5,-116 "/>
<path fill="none" stroke="black" d="M540.5,-116C534.5,-116 528.5,-110 528.5,-104"/>
<polyline fill="none" stroke="black" points="528.5,-104 528.5,-22 "/>
<path fill="none" stroke="black" d="M528.5,-22C528.5,-16 534.5,-10 540.5,-10"/>
<text text-anchor="middle" x="611" y="-99.4" font-family="Times Roman,serif" font-size="14.00">Comment</text>
<polyline fill="none" stroke="black" points="528.5,-90 693.5,-90 "/>
<text text-anchor="start" x="536.5" y="-73.4" font-family="Times Roman,serif" font-size="14.00">body :text</text>
<text text-anchor="start" x="536.5" y="-55.4" font-family="Times Roman,serif" font-size="14.00">created_at :datetime</text>
<text text-anchor="start" x="536.5" y="-37.4" font-family="Times Roman,serif" font-size="14.00">updated_at :datetime</text>
<text text-anchor="start" x="536.5" y="-19.4" font-family="Times Roman,serif" font-size="14.00">private :boolean</text>
</g>
<!-- Account&#45;&gt;Comment -->
<g id="edge20" class="edge"><title>Account&#45;&gt;Comment</title>
<path fill="none" stroke="#6e0106" d="M606.518,-918.989C594.364,-881.495 585,-839.72 585,-800 585,-800 585,-800 585,-272 585,-222.682 592.217,-167.316 599.047,-125.965"/>
<ellipse fill="none" stroke="#6e0106" cx="607.891" cy="-923.126" rx="4.00001" ry="4.00001"/>
<polygon fill="#6e0106" stroke="#6e0106" points="599.059,-125.894 605.161,-116.783 599.891,-120.963 600.724,-116.033 600.724,-116.033 600.724,-116.033 599.891,-120.963 596.287,-115.284 599.059,-125.894 599.059,-125.894"/>
</g>
<!-- Role -->
<g id="node15" class="node"><title>Role</title>
<polyline fill="none" stroke="black" points="1516.5,-756 1657.5,-756 "/>
<path fill="none" stroke="black" d="M1657.5,-756C1663.5,-756 1669.5,-762 1669.5,-768"/>
<polyline fill="none" stroke="black" points="1669.5,-768 1669.5,-832 "/>
<path fill="none" stroke="black" d="M1669.5,-832C1669.5,-838 1663.5,-844 1657.5,-844"/>
<polyline fill="none" stroke="black" points="1657.5,-844 1516.5,-844 "/>
<path fill="none" stroke="black" d="M1516.5,-844C1510.5,-844 1504.5,-838 1504.5,-832"/>
<polyline fill="none" stroke="black" points="1504.5,-832 1504.5,-768 "/>
<path fill="none" stroke="black" d="M1504.5,-768C1504.5,-762 1510.5,-756 1516.5,-756"/>
<text text-anchor="middle" x="1587" y="-827.4" font-family="Times Roman,serif" font-size="14.00">Role</text>
<polyline fill="none" stroke="black" points="1504.5,-818 1669.5,-818 "/>
<text text-anchor="start" x="1512.5" y="-801.4" font-family="Times Roman,serif" font-size="14.00">name :string</text>
<text text-anchor="start" x="1512.5" y="-783.4" font-family="Times Roman,serif" font-size="14.00">created_at :datetime</text>
<text text-anchor="start" x="1512.5" y="-765.4" font-family="Times Roman,serif" font-size="14.00">updated_at :datetime</text>
</g>
<!-- Account&#45;&gt;Role -->
<g id="edge14" class="edge"><title>Account&#45;&gt;Role</title>
<path fill="none" stroke="#dc39f1" d="M798.225,-926.661C906.144,-901.039 1423.44,-939.398 1491,-908 1516.72,-896.047 1538.45,-873.588 1554.69,-852.233"/>
<polygon fill="#dc39f1" stroke="#dc39f1" points="797.921,-926.752 787.05,-925.317 793.133,-928.189 788.344,-929.627 788.344,-929.627 788.344,-929.627 793.133,-928.189 789.638,-933.937 797.921,-926.752 797.921,-926.752"/>
<polygon fill="#dc39f1" stroke="#dc39f1" points="1554.72,-852.187 1564.27,-846.791 1557.68,-848.157 1560.64,-844.127 1560.64,-844.127 1560.64,-844.127 1557.68,-848.157 1557.02,-841.463 1554.72,-852.187 1554.72,-852.187"/>
</g>
<!-- Service -->
<g id="node16" class="node"><title>Service</title>
<polyline fill="none" stroke="black" points="868.5,-729 1009.5,-729 "/>
<path fill="none" stroke="black" d="M1009.5,-729C1015.5,-729 1021.5,-735 1021.5,-741"/>
<polyline fill="none" stroke="black" points="1021.5,-741 1021.5,-859 "/>
<path fill="none" stroke="black" d="M1021.5,-859C1021.5,-865 1015.5,-871 1009.5,-871"/>
<polyline fill="none" stroke="black" points="1009.5,-871 868.5,-871 "/>
<path fill="none" stroke="black" d="M868.5,-871C862.5,-871 856.5,-865 856.5,-859"/>
<polyline fill="none" stroke="black" points="856.5,-859 856.5,-741 "/>
<path fill="none" stroke="black" d="M856.5,-741C856.5,-735 862.5,-729 868.5,-729"/>
<text text-anchor="middle" x="939" y="-854.4" font-family="Times Roman,serif" font-size="14.00">Service</text>
<polyline fill="none" stroke="black" points="856.5,-845 1021.5,-845 "/>
<text text-anchor="start" x="864.5" y="-828.4" font-family="Times Roman,serif" font-size="14.00">title :string</text>
<text text-anchor="start" x="864.5" y="-810.4" font-family="Times Roman,serif" font-size="14.00">description :text</text>
<text text-anchor="start" x="864.5" y="-792.4" font-family="Times Roman,serif" font-size="14.00">created_at :datetime</text>
<text text-anchor="start" x="864.5" y="-774.4" font-family="Times Roman,serif" font-size="14.00">updated_at :datetime</text>
<text text-anchor="start" x="864.5" y="-756.4" font-family="Times Roman,serif" font-size="14.00">slug :string</text>
<text text-anchor="start" x="864.5" y="-738.4" font-family="Times Roman,serif" font-size="14.00">image :string</text>
</g>
<!-- Account&#45;&gt;Service -->
<g id="edge4" class="edge"><title>Account&#45;&gt;Service</title>
<path fill="none" stroke="#cfc813" d="M777.413,-921.04C788.857,-910.279 800.496,-899.774 812,-890 823.404,-880.312 835.815,-870.604 848.266,-861.339"/>
<ellipse fill="none" stroke="#cfc813" cx="774.353" cy="-923.938" rx="4.00002" ry="4.00002"/>
<polygon fill="#cfc813" stroke="#cfc813" points="848.39,-861.247 859.111,-858.942 852.417,-858.283 856.443,-855.319 856.443,-855.319 856.443,-855.319 852.417,-858.283 853.775,-851.695 848.39,-861.247 848.39,-861.247"/>
<text text-anchor="middle" x="858.5" y="-895.4" font-family="Times Roman,serif" font-size="14.00">own_services</text>
</g>
<!-- Account&#45;&gt;Service -->
<g id="edge10" class="edge"><title>Account&#45;&gt;Service</title>
<path fill="none" stroke="#df6c78" d="M797.497,-926.48C844.401,-909.31 870.495,-937.988 905,-908 913.607,-900.52 920.058,-890.885 924.89,-880.455"/>
<polygon fill="#df6c78" stroke="#df6c78" points="797.381,-926.529 786.419,-926.25 792.771,-928.464 788.161,-930.399 788.161,-930.399 788.161,-930.399 792.771,-928.464 789.902,-934.549 797.381,-926.529 797.381,-926.529"/>
<polygon fill="#df6c78" stroke="#df6c78" points="924.927,-880.366 932.894,-872.832 926.83,-875.743 928.733,-871.119 928.733,-871.119 928.733,-871.119 926.83,-875.743 924.571,-869.406 924.927,-880.366 924.927,-880.366"/>
</g>
<!-- Notification -->
<g id="node18" class="node"><title>Notification</title>
<polyline fill="none" stroke="black" points="624.5,-165 809.5,-165 "/>
<path fill="none" stroke="black" d="M809.5,-165C815.5,-165 821.5,-171 821.5,-177"/>
<polyline fill="none" stroke="black" points="821.5,-177 821.5,-367 "/>
<path fill="none" stroke="black" d="M821.5,-367C821.5,-373 815.5,-379 809.5,-379"/>
<polyline fill="none" stroke="black" points="809.5,-379 624.5,-379 "/>
<path fill="none" stroke="black" d="M624.5,-379C618.5,-379 612.5,-373 612.5,-367"/>
<polyline fill="none" stroke="black" points="612.5,-367 612.5,-177 "/>
<path fill="none" stroke="black" d="M612.5,-177C612.5,-171 618.5,-165 624.5,-165"/>
<text text-anchor="middle" x="717" y="-362.4" font-family="Times Roman,serif" font-size="14.00">Notification</text>
<polyline fill="none" stroke="black" points="612.5,-353 821.5,-353 "/>
<text text-anchor="start" x="620.5" y="-336.4" font-family="Times Roman,serif" font-size="14.00">title :string</text>
<text text-anchor="start" x="620.5" y="-318.4" font-family="Times Roman,serif" font-size="14.00">sms :string</text>
<text text-anchor="start" x="620.5" y="-300.4" font-family="Times Roman,serif" font-size="14.00">description :text</text>
<text text-anchor="start" x="620.5" y="-282.4" font-family="Times Roman,serif" font-size="14.00">created_at :datetime</text>
<text text-anchor="start" x="620.5" y="-264.4" font-family="Times Roman,serif" font-size="14.00">updated_at :datetime</text>
<text text-anchor="start" x="620.5" y="-246.4" font-family="Times Roman,serif" font-size="14.00">published :boolean</text>
<text text-anchor="start" x="620.5" y="-228.4" font-family="Times Roman,serif" font-size="14.00">published_at :datetime</text>
<text text-anchor="start" x="620.5" y="-210.4" font-family="Times Roman,serif" font-size="14.00">slug :string</text>
<text text-anchor="start" x="620.5" y="-192.4" font-family="Times Roman,serif" font-size="14.00">notificationable_type :string</text>
<text text-anchor="start" x="620.5" y="-174.4" font-family="Times Roman,serif" font-size="14.00">available_until :date</text>
</g>
<!-- Account&#45;&gt;Notification -->
<g id="edge16" class="edge"><title>Account&#45;&gt;Notification</title>
<path fill="none" stroke="#d42e03" d="M633.996,-918.744C627.804,-880.818 623,-838.868 623,-800 623,-800 623,-800 623,-472 623,-443.6 630.859,-414.903 642.032,-388.454"/>
<ellipse fill="none" stroke="#d42e03" cx="634.678" cy="-922.828" rx="4.00001" ry="4.00001"/>
<polygon fill="#d42e03" stroke="#d42e03" points="642.08,-388.346 650.233,-381.013 644.098,-383.771 646.115,-379.197 646.115,-379.197 646.115,-379.197 644.098,-383.771 641.998,-377.381 642.08,-388.346 642.08,-388.346"/>
</g>
<!-- Notice -->
<g id="node21" class="node"><title>Notice</title>
<polyline fill="none" stroke="black" points="766.5,-1 931.5,-1 "/>
<path fill="none" stroke="black" d="M931.5,-1C937.5,-1 943.5,-7 943.5,-13"/>
<polyline fill="none" stroke="black" points="943.5,-13 943.5,-113 "/>
<path fill="none" stroke="black" d="M943.5,-113C943.5,-119 937.5,-125 931.5,-125"/>
<polyline fill="none" stroke="black" points="931.5,-125 766.5,-125 "/>
<path fill="none" stroke="black" d="M766.5,-125C760.5,-125 754.5,-119 754.5,-113"/>
<polyline fill="none" stroke="black" points="754.5,-113 754.5,-13 "/>
<path fill="none" stroke="black" d="M754.5,-13C754.5,-7 760.5,-1 766.5,-1"/>
<text text-anchor="middle" x="849" y="-108.4" font-family="Times Roman,serif" font-size="14.00">Notice</text>
<polyline fill="none" stroke="black" points="754.5,-99 943.5,-99 "/>
<text text-anchor="start" x="762.5" y="-82.4" font-family="Times Roman,serif" font-size="14.00">read :boolean</text>
<text text-anchor="start" x="762.5" y="-64.4" font-family="Times Roman,serif" font-size="14.00">created_at :datetime</text>
<text text-anchor="start" x="762.5" y="-46.4" font-family="Times Roman,serif" font-size="14.00">updated_at :datetime</text>
<text text-anchor="start" x="762.5" y="-28.4" font-family="Times Roman,serif" font-size="14.00">new :boolean</text>
<text text-anchor="start" x="762.5" y="-10.4" font-family="Times Roman,serif" font-size="14.00">sufficient_credit :boolean</text>
</g>
<!-- Account&#45;&gt;Notice -->
<g id="edge8" class="edge"><title>Account&#45;&gt;Notice</title>
<path fill="none" stroke="#04feb4" d="M797.52,-926.193C851.876,-903.712 871.919,-917.066 926,-908 1049.06,-887.371 1477,-924.774 1477,-800 1477,-800 1477,-800 1477,-272 1477,-163.031 1132.29,-100.808 953.648,-75.8771"/>
<polygon fill="#04feb4" stroke="#04feb4" points="797.279,-926.298 786.314,-926.165 792.695,-928.294 788.111,-930.291 788.111,-930.291 788.111,-930.291 792.695,-928.294 789.907,-934.417 797.279,-926.298 797.279,-926.298"/>
<polygon fill="#04feb4" stroke="#04feb4" points="953.604,-75.871 944.313,-70.0453 948.651,-75.187 943.698,-74.503 943.698,-74.503 943.698,-74.503 948.651,-75.187 943.082,-78.9607 953.604,-75.871 953.604,-75.871"/>
</g>
<!-- Selection -->
<g id="node10" class="node"><title>Selection</title>
<polyline fill="none" stroke="black" points="948.5,-419 1089.5,-419 "/>
<path fill="none" stroke="black" d="M1089.5,-419C1095.5,-419 1101.5,-425 1101.5,-431"/>
<polyline fill="none" stroke="black" points="1101.5,-431 1101.5,-513 "/>
<path fill="none" stroke="black" d="M1101.5,-513C1101.5,-519 1095.5,-525 1089.5,-525"/>
<polyline fill="none" stroke="black" points="1089.5,-525 948.5,-525 "/>
<path fill="none" stroke="black" d="M948.5,-525C942.5,-525 936.5,-519 936.5,-513"/>
<polyline fill="none" stroke="black" points="936.5,-513 936.5,-431 "/>
<path fill="none" stroke="black" d="M936.5,-431C936.5,-425 942.5,-419 948.5,-419"/>
<text text-anchor="middle" x="1019" y="-508.4" font-family="Times Roman,serif" font-size="14.00">Selection</text>
<polyline fill="none" stroke="black" points="936.5,-499 1101.5,-499 "/>
<text text-anchor="start" x="944.5" y="-482.4" font-family="Times Roman,serif" font-size="14.00">label :string</text>
<text text-anchor="start" x="944.5" y="-464.4" font-family="Times Roman,serif" font-size="14.00">created_at :datetime</text>
<text text-anchor="start" x="944.5" y="-446.4" font-family="Times Roman,serif" font-size="14.00">updated_at :datetime</text>
<text text-anchor="start" x="944.5" y="-428.4" font-family="Times Roman,serif" font-size="14.00">position :integer</text>
</g>
<!-- Subscription&#45;&gt;Selection -->
<g id="edge22" class="edge"><title>Subscription&#45;&gt;Selection</title>
<path fill="none" stroke="#842776" d="M862.186,-563.952C886.789,-548.354 907.966,-535.559 927.524,-524.04"/>
<polygon fill="#842776" stroke="#842776" points="862.083,-564.018 851.231,-565.594 857.866,-566.704 853.648,-569.39 853.648,-569.39 853.648,-569.39 857.866,-566.704 856.066,-573.185 862.083,-564.018 862.083,-564.018"/>
<polygon fill="#842776" stroke="#842776" points="927.777,-523.892 938.679,-522.713 932.089,-521.362 936.402,-518.832 936.402,-518.832 936.402,-518.832 932.089,-521.362 934.125,-514.95 927.777,-523.892 927.777,-523.892"/>
</g>
<!-- Subscription&#45;&gt;Notification -->
<g id="edge26" class="edge"><title>Subscription&#45;&gt;Notification</title>
<path fill="none" stroke="#91e998" d="M759.985,-554.585C752.755,-507.059 743.137,-443.826 734.832,-389.226"/>
<polygon fill="#91e998" stroke="#91e998" points="760.028,-554.871 757.083,-565.434 760.78,-559.814 761.532,-564.757 761.532,-564.757 761.532,-564.757 760.78,-559.814 765.981,-564.081 760.028,-554.871 760.028,-554.871"/>
<polygon fill="#91e998" stroke="#91e998" points="734.801,-389.024 737.746,-378.461 734.049,-384.081 733.297,-379.138 733.297,-379.138 733.297,-379.138 734.049,-384.081 728.848,-379.814 734.801,-389.024 734.801,-389.024"/>
</g>
<!-- Subscription&#45;&gt;Notice -->
<g id="edge24" class="edge"><title>Subscription&#45;&gt;Notice</title>
<path fill="none" stroke="#259cbc" d="M791.126,-557.18C804.434,-508.058 821.025,-440.543 830,-380 842.355,-296.653 846.73,-199.847 848.25,-135.354"/>
<ellipse fill="none" stroke="#259cbc" cx="790.073" cy="-561.043" rx="4.00001" ry="4.00001"/>
<polygon fill="#259cbc" stroke="#259cbc" points="848.251,-135.286 852.969,-125.386 848.361,-130.287 848.47,-125.288 848.47,-125.288 848.47,-125.288 848.361,-130.287 843.971,-125.189 848.251,-135.286 848.251,-135.286"/>
</g>
<!-- GoogleAlertFeed -->
<g id="node9" class="node"><title>GoogleAlertFeed</title>
<polyline fill="none" stroke="black" points="1296.5,-574 1437.5,-574 "/>
<path fill="none" stroke="black" d="M1437.5,-574C1443.5,-574 1449.5,-580 1449.5,-586"/>
<polyline fill="none" stroke="black" points="1449.5,-586 1449.5,-668 "/>
<path fill="none" stroke="black" d="M1449.5,-668C1449.5,-674 1443.5,-680 1437.5,-680"/>
<polyline fill="none" stroke="black" points="1437.5,-680 1296.5,-680 "/>
<path fill="none" stroke="black" d="M1296.5,-680C1290.5,-680 1284.5,-674 1284.5,-668"/>
<polyline fill="none" stroke="black" points="1284.5,-668 1284.5,-586 "/>
<path fill="none" stroke="black" d="M1284.5,-586C1284.5,-580 1290.5,-574 1296.5,-574"/>
<text text-anchor="middle" x="1367" y="-663.4" font-family="Times Roman,serif" font-size="14.00">GoogleAlertFeed</text>
<polyline fill="none" stroke="black" points="1284.5,-654 1449.5,-654 "/>
<text text-anchor="start" x="1292.5" y="-637.4" font-family="Times Roman,serif" font-size="14.00">feed_url :string</text>
<text text-anchor="start" x="1292.5" y="-619.4" font-family="Times Roman,serif" font-size="14.00">search_key :string</text>
<text text-anchor="start" x="1292.5" y="-601.4" font-family="Times Roman,serif" font-size="14.00">created_at :datetime</text>
<text text-anchor="start" x="1292.5" y="-583.4" font-family="Times Roman,serif" font-size="14.00">updated_at :datetime</text>
</g>
<!-- ExternalSource -->
<g id="node20" class="node"><title>ExternalSource</title>
<polyline fill="none" stroke="black" points="1296.5,-428 1437.5,-428 "/>
<path fill="none" stroke="black" d="M1437.5,-428C1443.5,-428 1449.5,-434 1449.5,-440"/>
<polyline fill="none" stroke="black" points="1449.5,-440 1449.5,-504 "/>
<path fill="none" stroke="black" d="M1449.5,-504C1449.5,-510 1443.5,-516 1437.5,-516"/>
<polyline fill="none" stroke="black" points="1437.5,-516 1296.5,-516 "/>
<path fill="none" stroke="black" d="M1296.5,-516C1290.5,-516 1284.5,-510 1284.5,-504"/>
<polyline fill="none" stroke="black" points="1284.5,-504 1284.5,-440 "/>
<path fill="none" stroke="black" d="M1284.5,-440C1284.5,-434 1290.5,-428 1296.5,-428"/>
<text text-anchor="middle" x="1367" y="-499.4" font-family="Times Roman,serif" font-size="14.00">ExternalSource</text>
<polyline fill="none" stroke="black" points="1284.5,-490 1449.5,-490 "/>
<text text-anchor="start" x="1292.5" y="-473.4" font-family="Times Roman,serif" font-size="14.00">url :string</text>
<text text-anchor="start" x="1292.5" y="-455.4" font-family="Times Roman,serif" font-size="14.00">created_at :datetime</text>
<text text-anchor="start" x="1292.5" y="-437.4" font-family="Times Roman,serif" font-size="14.00">updated_at :datetime</text>
</g>
<!-- GoogleAlertFeed&#45;&gt;ExternalSource -->
<g id="edge28" class="edge"><title>GoogleAlertFeed&#45;&gt;ExternalSource</title>
<path fill="none" stroke="#10f3c3" d="M1367,-565.642C1367,-552.731 1367,-539.195 1367,-526.555"/>
<ellipse fill="none" stroke="#10f3c3" cx="1367" cy="-569.658" rx="4" ry="4"/>
<polygon fill="#10f3c3" stroke="#10f3c3" points="1367,-526.18 1371.5,-516.18 1367,-521.18 1367,-516.18 1367,-516.18 1367,-516.18 1367,-521.18 1362.5,-516.18 1367,-526.18 1367,-526.18"/>
</g>
<!-- Selection&#45;&gt;Notification -->
<g id="edge30" class="edge"><title>Selection&#45;&gt;Notification</title>
<path fill="none" stroke="#98ed7f" d="M930.325,-413.275C898.947,-392.495 863.215,-368.831 830.086,-346.891"/>
<polygon fill="#98ed7f" stroke="#98ed7f" points="930.525,-413.407 936.378,-422.681 934.694,-416.168 938.862,-418.929 938.862,-418.929 938.862,-418.929 934.694,-416.168 941.347,-415.177 930.525,-413.407 930.525,-413.407"/>
<polygon fill="#98ed7f" stroke="#98ed7f" points="830.061,-346.875 824.208,-337.602 825.892,-344.114 821.724,-341.353 821.724,-341.353 821.724,-341.353 825.892,-344.114 819.239,-345.105 830.061,-346.875 830.061,-346.875"/>
</g>
<!-- AdminAbility -->
<g id="node11" class="node"><title>AdminAbility</title>
<polygon fill="none" stroke="black" points="884,-1017 884,-1069 988,-1069 988,-1017 884,-1017"/>
<text text-anchor="middle" x="936" y="-1052.4" font-family="Times Roman,serif" font-size="14.00">AdminAbility</text>
<polyline fill="none" stroke="black" points="884,-1043 988,-1043 "/>
<text text-anchor="middle" x="936" y="-1026.4" font-family="Times Roman,serif" font-size="14.00"> </text>
</g>
<!-- Filter -->
<g id="node12" class="node"><title>Filter</title>
<polyline fill="none" stroke="black" points="1114.5,-583 1255.5,-583 "/>
<path fill="none" stroke="black" d="M1255.5,-583C1261.5,-583 1267.5,-589 1267.5,-595"/>
<polyline fill="none" stroke="black" points="1267.5,-595 1267.5,-659 "/>
<path fill="none" stroke="black" d="M1267.5,-659C1267.5,-665 1261.5,-671 1255.5,-671"/>
<polyline fill="none" stroke="black" points="1255.5,-671 1114.5,-671 "/>
<path fill="none" stroke="black" d="M1114.5,-671C1108.5,-671 1102.5,-665 1102.5,-659"/>
<polyline fill="none" stroke="black" points="1102.5,-659 1102.5,-595 "/>
<path fill="none" stroke="black" d="M1102.5,-595C1102.5,-589 1108.5,-583 1114.5,-583"/>
<text text-anchor="middle" x="1185" y="-654.4" font-family="Times Roman,serif" font-size="14.00">Filter</text>
<polyline fill="none" stroke="black" points="1102.5,-645 1267.5,-645 "/>
<text text-anchor="start" x="1110.5" y="-628.4" font-family="Times Roman,serif" font-size="14.00">name :string</text>
<text text-anchor="start" x="1110.5" y="-610.4" font-family="Times Roman,serif" font-size="14.00">created_at :datetime</text>
<text text-anchor="start" x="1110.5" y="-592.4" font-family="Times Roman,serif" font-size="14.00">updated_at :datetime</text>
</g>
<!-- Filter&#45;&gt;Selection -->
<g id="edge32" class="edge"><title>Filter&#45;&gt;Selection</title>
<path fill="none" stroke="#d3e29a" d="M1131.91,-577.43C1116.44,-562.983 1099.37,-547.041 1083.28,-532.023"/>
<ellipse fill="none" stroke="#d3e29a" cx="1134.95" cy="-580.268" rx="4.00002" ry="4.00002"/>
<polygon fill="#d3e29a" stroke="#d3e29a" points="1083.28,-532.021 1079.04,-521.907 1079.63,-528.609 1075.97,-525.196 1075.97,-525.196 1075.97,-525.196 1079.63,-528.609 1072.9,-528.486 1083.28,-532.021 1083.28,-532.021"/>
</g>
<!-- PaymentType -->
<g id="node13" class="node"><title>PaymentType</title>
<polyline fill="none" stroke="black" points="24.5,-738 165.5,-738 "/>
<path fill="none" stroke="black" d="M165.5,-738C171.5,-738 177.5,-744 177.5,-750"/>
<polyline fill="none" stroke="black" points="177.5,-750 177.5,-850 "/>
<path fill="none" stroke="black" d="M177.5,-850C177.5,-856 171.5,-862 165.5,-862"/>
<polyline fill="none" stroke="black" points="165.5,-862 24.5,-862 "/>
<path fill="none" stroke="black" d="M24.5,-862C18.5,-862 12.5,-856 12.5,-850"/>
<polyline fill="none" stroke="black" points="12.5,-850 12.5,-750 "/>
<path fill="none" stroke="black" d="M12.5,-750C12.5,-744 18.5,-738 24.5,-738"/>
<text text-anchor="middle" x="95" y="-845.4" font-family="Times Roman,serif" font-size="14.00">PaymentType</text>
<polyline fill="none" stroke="black" points="12.5,-836 177.5,-836 "/>
<text text-anchor="start" x="20.5" y="-819.4" font-family="Times Roman,serif" font-size="14.00">name :string</text>
<text text-anchor="start" x="20.5" y="-801.4" font-family="Times Roman,serif" font-size="14.00">description :text</text>
<text text-anchor="start" x="20.5" y="-783.4" font-family="Times Roman,serif" font-size="14.00">active :boolean</text>
<text text-anchor="start" x="20.5" y="-765.4" font-family="Times Roman,serif" font-size="14.00">created_at :datetime</text>
<text text-anchor="start" x="20.5" y="-747.4" font-family="Times Roman,serif" font-size="14.00">updated_at :datetime</text>
</g>
<!-- PaymentType&#45;&gt;CreditHistory -->
<g id="edge34" class="edge"><title>PaymentType&#45;&gt;CreditHistory</title>
<path fill="none" stroke="#6cb89c" d="M171.431,-732.192C184.768,-720.36 198.657,-708.038 212.034,-696.17"/>
<ellipse fill="none" stroke="#6cb89c" cx="168.116" cy="-735.133" rx="4.00002" ry="4.00002"/>
<polygon fill="#6cb89c" stroke="#6cb89c" points="212.363,-695.878 222.83,-692.608 216.103,-692.56 219.843,-689.242 219.843,-689.242 219.843,-689.242 216.103,-692.56 216.857,-685.875 212.363,-695.878 212.363,-695.878"/>
</g>
<!-- PaymentTypeSelection -->
<g id="node17" class="node"><title>PaymentTypeSelection</title>
<polyline fill="none" stroke="black" points="12,-565 160,-565 "/>
<path fill="none" stroke="black" d="M160,-565C166,-565 172,-571 172,-577"/>
<polyline fill="none" stroke="black" points="172,-577 172,-677 "/>
<path fill="none" stroke="black" d="M172,-677C172,-683 166,-689 160,-689"/>
<polyline fill="none" stroke="black" points="160,-689 12,-689 "/>
<path fill="none" stroke="black" d="M12,-689C6,-689 0,-683 0,-677"/>
<polyline fill="none" stroke="black" points="0,-677 0,-577 "/>
<path fill="none" stroke="black" d="M0,-577C0,-571 6,-565 12,-565"/>
<text text-anchor="middle" x="86" y="-672.4" font-family="Times Roman,serif" font-size="14.00">PaymentTypeSelection</text>
<polyline fill="none" stroke="black" points="0,-663 172,-663 "/>
<text text-anchor="start" x="8" y="-646.4" font-family="Times Roman,serif" font-size="14.00">credit :integer</text>
<text text-anchor="start" x="8" y="-628.4" font-family="Times Roman,serif" font-size="14.00">price :integer</text>
<text text-anchor="start" x="8" y="-610.4" font-family="Times Roman,serif" font-size="14.00">active :boolean</text>
<text text-anchor="start" x="8" y="-592.4" font-family="Times Roman,serif" font-size="14.00">created_at :datetime</text>
<text text-anchor="start" x="8" y="-574.4" font-family="Times Roman,serif" font-size="14.00">updated_at :datetime</text>
</g>
<!-- PaymentType&#45;&gt;PaymentTypeSelection -->
<g id="edge36" class="edge"><title>PaymentType&#45;&gt;PaymentTypeSelection</title>
<path fill="none" stroke="#55f2dc" d="M91.3229,-729.318C90.8079,-719.419 90.2781,-709.234 89.7616,-699.306"/>
<ellipse fill="none" stroke="#55f2dc" cx="91.5429" cy="-733.548" rx="4" ry="4"/>
<polygon fill="#55f2dc" stroke="#55f2dc" points="89.749,-699.062 93.7233,-688.841 89.4892,-694.068 89.2293,-689.075 89.2293,-689.075 89.2293,-689.075 89.4892,-694.068 84.7354,-689.309 89.749,-699.062 89.749,-699.062"/>
</g>
<!-- Comment&#45;&gt;Comment -->
<g id="edge38" class="edge"><title>Comment&#45;&gt;Comment</title>
<path fill="none" stroke="#6c0822" d="M701.62,-73.8991C707.466,-71.3526 711,-67.7196 711,-63 711,-58.7934 708.193,-55.45 703.443,-52.9698"/>
<ellipse fill="none" stroke="#6c0822" cx="697.579" cy="-75.1802" rx="4.00001" ry="4.00001"/>
<polygon fill="#6c0822" stroke="#6c0822" points="703.213,-52.8902 695.242,-45.3596 698.49,-51.2505 693.766,-49.6107 693.766,-49.6107 693.766,-49.6107 698.49,-51.2505 692.291,-53.8618 703.213,-52.8902 703.213,-52.8902"/>
</g>
<!-- Service&#45;&gt;Subscription -->
<g id="edge48" class="edge"><title>Service&#45;&gt;Subscription</title>
<path fill="none" stroke="#74a2e9" d="M863.996,-722.764C855.443,-713.956 846.765,-705.02 838.32,-696.324"/>
<ellipse fill="none" stroke="#74a2e9" cx="866.911" cy="-725.766" rx="4.00002" ry="4.00002"/>
<polygon fill="#74a2e9" stroke="#74a2e9" points="838.257,-696.259 834.519,-685.95 834.774,-692.672 831.29,-689.085 831.29,-689.085 831.29,-689.085 834.774,-692.672 828.062,-692.22 838.257,-696.259 838.257,-696.259"/>
</g>
<!-- Service&#45;&gt;GoogleAlertFeed -->
<g id="edge50" class="edge"><title>Service&#45;&gt;GoogleAlertFeed</title>
<path fill="none" stroke="#fedc27" d="M1029.51,-778.136C1099,-759.547 1196.24,-729.571 1276,-690 1279.11,-688.459 1282.23,-686.822 1285.34,-685.11"/>
<ellipse fill="none" stroke="#fedc27" cx="1025.47" cy="-779.208" rx="4.00001" ry="4.00001"/>
<polygon fill="#fedc27" stroke="#fedc27" points="1285.42,-685.065 1296.34,-684.015 1289.77,-682.586 1294.11,-680.107 1294.11,-680.107 1294.11,-680.107 1289.77,-682.586 1291.88,-676.199 1285.42,-685.065 1285.42,-685.065"/>
</g>
<!-- Service&#45;&gt;Selection -->
<g id="edge42" class="edge"><title>Service&#45;&gt;Selection</title>
<path fill="none" stroke="#f1550c" d="M1028.74,-731.528C1039.8,-718.984 1049.49,-705.046 1056,-690 1077.43,-640.431 1064.14,-579.51 1047.81,-534.682"/>
<polygon fill="#f1550c" stroke="#f1550c" points="1028.47,-731.813 1018.38,-736.101 1025.08,-735.484 1021.68,-739.156 1021.68,-739.156 1021.68,-739.156 1025.08,-735.484 1024.99,-742.211 1028.47,-731.813 1028.47,-731.813"/>
<polygon fill="#f1550c" stroke="#f1550c" points="1047.72,-534.438 1048.39,-523.493 1045.95,-529.762 1044.18,-525.085 1044.18,-525.085 1044.18,-525.085 1045.95,-529.762 1039.97,-526.677 1047.72,-534.438 1047.72,-534.438"/>
</g>
<!-- Service&#45;&gt;Filter -->
<g id="edge40" class="edge"><title>Service&#45;&gt;Filter</title>
<path fill="none" stroke="#aee41f" d="M1028.46,-749.77C1048.8,-737.414 1069.99,-723.761 1089,-710 1102.45,-700.263 1116.3,-689.066 1129.15,-678.113"/>
<ellipse fill="none" stroke="#aee41f" cx="1025.03" cy="-751.843" rx="4.00002" ry="4.00002"/>
<polygon fill="#aee41f" stroke="#aee41f" points="1129.43,-677.868 1139.94,-674.748 1133.22,-674.604 1137.01,-671.34 1137.01,-671.34 1137.01,-671.34 1133.22,-674.604 1134.07,-667.931 1129.43,-677.868 1129.43,-677.868"/>
</g>
<!-- Service&#45;&gt;Notification -->
<g id="edge46" class="edge"><title>Service&#45;&gt;Notification</title>
<path fill="none" stroke="#33de47" d="M848.425,-787.282C789.614,-773.815 717.218,-746.243 680,-690 621.523,-601.631 641.439,-478.744 669.545,-389.088"/>
<ellipse fill="none" stroke="#33de47" cx="852.354" cy="-788.15" rx="4.00001" ry="4.00001"/>
<polygon fill="#33de47" stroke="#33de47" points="669.591,-388.945 676.931,-380.798 671.119,-384.184 672.646,-379.423 672.646,-379.423 672.646,-379.423 671.119,-384.184 668.362,-378.048 669.591,-388.945 669.591,-388.945"/>
</g>
<!-- ServicePrice -->
<g id="node19" class="node"><title>ServicePrice</title>
<polyline fill="none" stroke="black" points="882.5,-574 1035.5,-574 "/>
<path fill="none" stroke="black" d="M1035.5,-574C1041.5,-574 1047.5,-580 1047.5,-586"/>
<polyline fill="none" stroke="black" points="1047.5,-586 1047.5,-668 "/>
<path fill="none" stroke="black" d="M1047.5,-668C1047.5,-674 1041.5,-680 1035.5,-680"/>
<polyline fill="none" stroke="black" points="1035.5,-680 882.5,-680 "/>
<path fill="none" stroke="black" d="M882.5,-680C876.5,-680 870.5,-674 870.5,-668"/>
<polyline fill="none" stroke="black" points="870.5,-668 870.5,-586 "/>
<path fill="none" stroke="black" d="M870.5,-586C870.5,-580 876.5,-574 882.5,-574"/>
<text text-anchor="middle" x="959" y="-663.4" font-family="Times Roman,serif" font-size="14.00">ServicePrice</text>
<polyline fill="none" stroke="black" points="870.5,-654 1047.5,-654 "/>
<text text-anchor="start" x="878.5" y="-637.4" font-family="Times Roman,serif" font-size="14.00">sender_credit :integer</text>
<text text-anchor="start" x="878.5" y="-619.4" font-family="Times Roman,serif" font-size="14.00">receiver_credit :integer</text>
<text text-anchor="start" x="878.5" y="-601.4" font-family="Times Roman,serif" font-size="14.00">created_at :datetime</text>
<text text-anchor="start" x="878.5" y="-583.4" font-family="Times Roman,serif" font-size="14.00">updated_at :datetime</text>
</g>
<!-- Service&#45;&gt;ServicePrice -->
<g id="edge44" class="edge"><title>Service&#45;&gt;ServicePrice</title>
<path fill="none" stroke="#06ce0d" d="M948.177,-720.616C949.426,-709.817 950.691,-698.87 951.896,-688.453"/>
<ellipse fill="none" stroke="#06ce0d" cx="947.71" cy="-724.662" rx="4.00001" ry="4.00001"/>
<ellipse fill="#06ce0d" stroke="#06ce0d" cx="952.387" cy="-684.199" rx="4.00001" ry="4.00001"/>
</g>
<!-- Notification&#45;&gt;Comment -->
<g id="edge54" class="edge"><title>Notification&#45;&gt;Comment</title>
<path fill="none" stroke="#c8cdde" d="M658.984,-157.61C653.295,-146.393 647.684,-135.329 642.416,-124.942"/>
<ellipse fill="none" stroke="#c8cdde" cx="660.793" cy="-161.177" rx="4.00002" ry="4.00002"/>
<polygon fill="#c8cdde" stroke="#c8cdde" points="642.405,-124.92 641.895,-113.966 640.143,-120.461 637.881,-116.002 637.881,-116.002 637.881,-116.002 640.143,-120.461 633.868,-118.037 642.405,-124.92 642.405,-124.92"/>
</g>
<!-- Notification&#45;&gt;Notice -->
<g id="edge52" class="edge"><title>Notification&#45;&gt;Notice</title>
<path fill="none" stroke="#a0dd27" d="M789.14,-157.778C794.264,-149.666 799.337,-141.633 804.236,-133.876"/>
<ellipse fill="none" stroke="#a0dd27" cx="786.876" cy="-161.363" rx="4.00002" ry="4.00002"/>
<polygon fill="#a0dd27" stroke="#a0dd27" points="804.346,-133.701 813.491,-127.649 807.016,-129.474 809.686,-125.246 809.686,-125.246 809.686,-125.246 807.016,-129.474 805.882,-122.843 804.346,-133.701 804.346,-133.701"/>
</g>
</g>
</svg>
